<?xml version="1.0" encoding="iso-8859-1"?>
<!-- Generator: Adobe Illustrator 19.0.0, SVG Export Plug-In . SVG Version: 6.00 Build 0)  -->
<svg version="1.1" id="Capa_1" xmlns="http://www.w3.org/2000/svg" xmlns:xlink="http://www.w3.org/1999/xlink" x="0px" y="0px"
	 viewBox="0 0 512 512" style="enable-background:new 0 0 512 512;" xml:space="preserve">
<circle style="fill:#EF4487;" cx="256" cy="256" r="256"/>
<g>
	<path style="fill:#9B642D;" d="M378.615,113.967c0.953,0.953,1.855,1.944,2.697,2.963c6.443,7.788,9.672,17.356,9.672,26.902
		c-0.007,10.809-4.13,21.626-12.376,29.872L173.693,378.617c-15.538,15.538-40.171,16.439-56.766,2.697
		c-1.02-0.842-2.009-1.744-2.963-2.697c-8.194-8.194-12.316-18.893-12.376-29.635v-0.236c0-10.817,4.123-21.619,12.368-29.864
		L318.87,113.967c8.312-8.312,19.218-12.435,30.109-12.376C359.714,101.657,370.421,105.773,378.615,113.967z"/>
	<path style="fill:#9B642D;" d="M438.351,173.703c8.245,8.245,12.361,19.055,12.368,29.864c0,10.817-4.13,21.626-12.376,29.872
		L233.429,438.353c-16.492,16.492-43.238,16.492-59.728,0c-6.457-6.457-10.388-14.481-11.784-22.853
		c-0.399-2.32-0.591-4.67-0.591-7.019c0.007-10.809,4.123-21.619,12.368-29.864l204.914-204.914
		c10.041-10.041,23.873-13.971,36.891-11.784C423.862,163.323,431.893,167.245,438.351,173.703z"/>
</g>
<g>
	<path style="fill:#844719;" d="M437.786,190.634c0,10.817-4.13,21.626-12.376,29.872L220.496,425.421
		c-14.272,14.272-36.221,16.182-52.56,5.751c1.624,2.545,3.541,4.958,5.765,7.183c16.492,16.492,43.238,16.492,59.728,0
		l204.914-204.914c8.245-8.245,12.376-19.055,12.376-29.872c-0.007-10.809-4.123-21.619-12.368-29.864
		c-2.224-2.222-4.636-4.138-7.182-5.762C435.571,174.841,437.781,182.736,437.786,190.634z"/>
	<path style="fill:#844719;" d="M378.05,130.899c0,10.817-4.13,21.626-12.376,29.872L160.761,365.684
		c-14.272,14.272-36.221,16.182-52.56,5.751c1.624,2.545,3.541,4.958,5.765,7.183c16.492,16.492,43.238,16.492,59.728,0
		l204.914-204.914c8.245-8.245,12.376-19.055,12.376-29.872c-0.007-10.809-4.123-21.619-12.368-29.864
		c-2.223-2.223-4.636-4.138-7.182-5.762C375.835,115.105,378.044,122.999,378.05,130.899z"/>
	<path style="fill:#844719;" d="M219.493,332.82l-45.798,45.798c-16.5,16.5-43.237,16.5-59.737,0
		c-8.255-8.255-12.373-19.053-12.382-29.868c0.009-10.816,4.127-21.614,12.382-29.868l45.798-45.798
		c-8.255,8.255-12.373,19.053-12.382,29.868c0.009,10.816,4.127,21.614,12.382,29.868C176.257,349.32,202.993,349.32,219.493,332.82
		z"/>
	<path style="fill:#844719;" d="M279.23,392.556l-45.798,45.798c-16.5,16.5-43.237,16.5-59.737,0
		c-8.255-8.255-12.373-19.053-12.382-29.868c0.009-10.816,4.127-21.614,12.382-29.868l45.798-45.798
		c-8.255,8.255-12.373,19.053-12.382,29.868c0.009,10.816,4.127,21.614,12.382,29.868
		C235.993,409.056,262.73,409.056,279.23,392.556z"/>
</g>
<path style="fill:#FFAD61;" d="M501.163,220.583l9.395,9.395c7.494,73.929-17.025,150.527-73.539,207.041
	s-133.113,81.033-207.041,73.539l-9.395-9.395c-13.794-13.794-13.803-36.159-0.009-49.952l230.628-230.628
	C464.996,206.789,487.37,206.789,501.163,220.583z"/>
<path style="fill:#EA7D39;" d="M264.02,407.766c-13.794,13.794-13.784,36.159,0.009,49.952l47.997,47.997
	c-26.945,6.001-54.676,7.612-82.047,4.842l-9.395-9.395c-13.794-13.794-13.803-36.159-0.009-49.952L264.02,407.766z"/>
<path style="fill:#FFAD61;" d="M334.44,98.4L98.394,334.447c-12.297,12.297-32.236,12.297-44.534,0l-3.348-3.348
	c-63.833-63.833-63.833-167.327,0-231.161l49.419-49.419c63.833-63.833,167.327-63.833,231.161,0l3.348,3.348
	C346.738,66.164,346.738,86.103,334.44,98.4z"/>
<path style="fill:#844719;" d="M378.615,113.967c0.953,0.953,1.855,1.944,2.697,2.963c-17.548,10.573-31.062,3.842-50.73,23.51
	c-23.769,23.769-8.991,38.546-32.761,62.315c-23.762,23.762-38.539,8.984-62.307,32.753s-8.991,38.546-32.761,62.315
	c-23.769,23.769-38.546,8.991-62.315,32.761c-19.675,19.675-12.937,33.182-23.51,50.73c-1.02-0.842-2.009-1.744-2.963-2.697
	c-8.194-8.194-12.316-18.893-12.376-29.635l247.39-247.39C359.714,101.657,370.421,105.773,378.615,113.967z"/>
<path style="fill:#EDD23C;" d="M318.87,113.967l1.47,9.14l2.867,17.866l9.806,60.999c1.182,7.353-5.174,13.709-12.526,12.527
	l-37.807-6.076l-41.066-6.59l-9.14-1.47L318.87,113.967z"/>
<path style="fill:#EA7D39;" d="M99.48,282.132l3.349,3.349c12.301,12.301,32.239,12.291,44.53,0l-48.966,48.966
	c-12.291,12.291-32.231,12.301-44.53,0l-3.349-3.349c-63.837-63.837-63.836-167.326,0-231.162L99.48,50.97
	C35.653,114.798,35.644,218.295,99.48,282.132z"/>
<path style="fill:#EDD23C;" d="M415.498,161.918L275.58,301.835c-3.16,3.16-4.611,7.643-3.903,12.056l9.064,56.418
	c1.414,8.799-6.192,16.405-14.991,14.991l-56.416-9.063l0,0c-4.413-0.709-8.898,0.742-12.059,3.902l-35.36,35.36
	c-0.399-2.32-0.591-4.67-0.591-7.019c0.007-10.809,4.123-21.619,12.368-29.864l204.914-204.914
	C388.648,163.662,402.479,159.731,415.498,161.918z"/>
<path style="fill:#DDB334;" d="M320.341,123.107l2.867,17.866c-18.361,21.434-6.583,35.842-28.956,58.214
	c-4.093,4.093-7.913,7.042-11.57,9.236l-41.066-6.59L320.341,123.107z"/>
<path style="fill:#5FB795;" d="M384.023,98.82c-23.769,23.769-38.546,8.991-62.307,32.753
	c-23.769,23.769-8.991,38.546-32.761,62.315c-23.762,23.762-38.539,8.984-62.307,32.753s-8.991,38.546-32.761,62.315
	c-3.679,3.679-7.145,6.436-10.463,8.556c-18.102,11.556-31.763,4.116-51.853,24.205c-23.769,23.769-8.991,38.546-32.753,62.307
	l-9.878-26.045c-2.357-6.214-0.85-13.233,3.849-17.932L340.046,92.791c4.692-4.692,11.711-6.199,17.924-3.842L384.023,98.82z"/>
<path style="fill:#3B9B74;" d="M165.788,267.05l17.637,30.463c-18.102,11.556-31.763,4.116-51.853,24.205
	c-23.769,23.769-8.991,38.546-32.753,62.307L88.94,357.98c-2.357-6.214-0.85-13.233,3.849-17.931L165.788,267.05z"/>
<path style="fill:#DDB334;" d="M219.494,332.816c-8.26,8.26-12.376,19.055-12.383,29.879c0.007,4.574,0.746,9.154,2.224,13.543
	l-7.027-1.131l-40.394,40.394c-0.399-2.32-0.591-4.67-0.591-7.019c0.007-10.809,4.123-21.619,12.368-29.864L219.494,332.816z"/>
<g>
	<path style="fill:#E6E8E9;" d="M118.768,118.775L118.768,118.775c-3.673,3.673-9.627,3.673-13.299,0L95.124,108.43
		c-3.673-3.673-3.673-9.627,0-13.299l0,0c3.673-3.673,9.627-3.673,13.299,0l10.344,10.344
		C122.441,109.148,122.441,115.103,118.768,118.775z"/>
	<path style="fill:#E6E8E9;" d="M68.701,168.842L68.701,168.842c-3.673,3.673-9.627,3.673-13.299,0l-10.344-10.344
		c-3.673-3.673-3.673-9.627,0-13.299l0,0c3.673-3.673,9.627-3.673,13.299,0l10.344,10.344
		C72.374,159.215,72.374,165.17,68.701,168.842z"/>
	<path style="fill:#E6E8E9;" d="M168.837,68.707L168.837,68.707c-3.673,3.673-9.627,3.673-13.299,0l-10.344-10.344
		c-3.673-3.673-3.673-9.627,0-13.299l0,0c3.673-3.673,9.627-3.673,13.299,0l10.344,10.344
		C172.508,59.081,172.508,65.034,168.837,68.707z"/>
</g>
<g>
	<path style="fill:#EA7D39;" d="M95.78,244.08c0.492,4.277-1.772,8.519-5.6,10.49c-3.928,2.023-8.874,1.296-12.043-1.786
		c-3.129-3.043-4.043-7.839-2.247-11.817c1.797-3.98,6.021-6.454,10.373-6.099C91.17,235.268,95.216,239.19,95.78,244.08z"/>
	<path style="fill:#EA7D39;" d="M142.119,240.099c0.492,4.277-1.772,8.519-5.6,10.49c-3.928,2.023-8.874,1.296-12.043-1.786
		c-3.129-3.043-4.043-7.839-2.247-11.817c1.797-3.98,6.021-6.454,10.373-6.099C137.51,231.288,141.555,235.209,142.119,240.099z"/>
	<path style="fill:#EA7D39;" d="M297.204,438.442c0.492,4.277-1.772,8.519-5.6,10.49c-3.928,2.023-8.874,1.296-12.043-1.786
		c-3.129-3.043-4.043-7.839-2.247-11.817c1.797-3.98,6.021-6.454,10.373-6.099C292.595,429.632,296.641,433.553,297.204,438.442z"/>
	<path style="fill:#EA7D39;" d="M337.138,435.286c0.492,4.277-1.772,8.519-5.6,10.49c-3.928,2.023-8.874,1.296-12.043-1.786
		c-3.129-3.043-4.043-7.839-2.247-11.817c1.797-3.98,6.021-6.454,10.373-6.099C332.529,426.475,336.575,430.396,337.138,435.286z"/>
	<path style="fill:#EA7D39;" d="M328.334,472.731c0.492,4.277-1.772,8.519-5.6,10.49c-3.928,2.023-8.874,1.296-12.044-1.786
		c-3.129-3.043-4.043-7.839-2.247-11.817c1.797-3.98,6.021-6.454,10.373-6.099C323.725,463.92,327.771,467.841,328.334,472.731z"/>
	<path style="fill:#EA7D39;" d="M122.908,275.447c0.492,4.277-1.772,8.519-5.6,10.49c-3.928,2.023-8.874,1.296-12.043-1.786
		c-3.129-3.043-4.043-7.839-2.247-11.817c1.797-3.98,6.021-6.454,10.373-6.099C118.299,266.636,122.345,270.556,122.908,275.447z"/>
</g>
<g>
</g>
<g>
</g>
<g>
</g>
<g>
</g>
<g>
</g>
<g>
</g>
<g>
</g>
<g>
</g>
<g>
</g>
<g>
</g>
<g>
</g>
<g>
</g>
<g>
</g>
<g>
</g>
<g>
</g>
</svg>
