<?xml version="1.0" encoding="iso-8859-1"?>
<!-- Generator: Adobe Illustrator 19.0.0, SVG Export Plug-In . SVG Version: 6.00 Build 0)  -->
<svg version="1.1" id="Capa_1" xmlns="http://www.w3.org/2000/svg" xmlns:xlink="http://www.w3.org/1999/xlink" x="0px" y="0px"
	 viewBox="0 0 512 512" style="enable-background:new 0 0 512 512;" xml:space="preserve">
<path style="fill:#523659;" d="M512,256c0,6.875-0.272,13.699-0.805,20.438c-4.618,58.514-28.912,111.49-66.277,152.314
	c-5.13,5.611-10.512,10.992-16.123,16.123c-21.88,20.041-47.26,36.32-75.107,47.825c-24.116,9.968-50.082,16.353-77.249,18.495
	c-6.74,0.533-13.563,0.805-20.438,0.805C114.618,511.999,0.003,397.384,0.003,256S114.618,0.002,256.002,0.002S512,114.616,512,256z
	"/>
<path style="fill:#E6E8E9;" d="M315.288,49.201c0,0,86.837,176.588,59.865,203.56c-12.516,12.516-90.738,151.563-94.036,167.697
	L49.199,315.289c-67.531-73.911-65.542-188.607,5.969-260.118S241.376-18.33,315.288,49.201z"/>
<g>
	<path style="fill:#EA9B28;" d="M210.017,39.977c-41.981,0-76.012,34.032-76.012,76.013s34.032,76.013,76.012,76.013
		s76.012-34.032,76.012-76.013S251.998,39.977,210.017,39.977z M210.017,164.951c-27.041,0-48.963-21.921-48.963-48.963
		s21.921-48.963,48.963-48.963s48.963,21.921,48.963,48.963S237.059,164.951,210.017,164.951z"/>
	<path style="fill:#EA9B28;" d="M333.102,156.107c-41.981,0-76.012,34.032-76.012,76.013s34.032,76.013,76.012,76.013
		s76.012-34.032,76.012-76.013S375.083,156.107,333.102,156.107z M333.102,281.082c-27.041,0-48.963-21.921-48.963-48.963
		s21.921-48.963,48.963-48.963c27.042,0,48.963,21.921,48.963,48.963S360.143,281.082,333.102,281.082z"/>
</g>
<path style="fill:#FFC34E;" d="M194.134,255.112c-41.981,0-76.012,34.032-76.012,76.013s34.032,76.013,76.012,76.013
	s76.012-34.032,76.012-76.013S236.114,255.112,194.134,255.112z M194.134,380.086c-27.041,0-48.963-21.921-48.963-48.963
	s21.921-48.963,48.963-48.963s48.963,21.921,48.963,48.963S221.176,380.086,194.134,380.086z"/>
<path style="fill:#FFDE94;" d="M101.305,88.687c-41.981,0-76.012,34.032-76.012,76.013s34.032,76.013,76.012,76.013
	s76.012-34.032,76.012-76.013S143.285,88.687,101.305,88.687z M101.305,213.662c-27.041,0-48.963-21.921-48.963-48.963
	s21.921-48.963,48.963-48.963s48.963,21.921,48.963,48.963S128.346,213.662,101.305,213.662z"/>
<path style="fill:#EA9B28;" d="M139.018,184.584c-41.981,0-76.012,34.032-76.012,76.013s34.032,76.013,76.012,76.013
	s76.012-34.032,76.012-76.013S180.997,184.584,139.018,184.584z M139.018,309.559c-27.041,0-48.963-21.921-48.963-48.963
	s21.921-48.963,48.963-48.963s48.963,21.921,48.963,48.963S166.059,309.559,139.018,309.559z"/>
<path style="fill:#FFC34E;" d="M178.724,108.307c-41.981,0-76.012,34.032-76.012,76.013s34.032,76.013,76.012,76.013
	s76.012-34.032,76.012-76.013S220.703,108.307,178.724,108.307z M178.724,233.282c-27.041,0-48.963-21.921-48.963-48.963
	s21.921-48.963,48.963-48.963s48.963,21.921,48.963,48.963S205.764,233.282,178.724,233.282z"/>
<path style="fill:#FFDE94;" d="M257.091,80.095c-41.981,0-76.012,34.032-76.012,76.013s34.032,76.013,76.012,76.013
	s76.012-34.032,76.012-76.013S299.07,80.095,257.091,80.095z M257.091,205.07c-27.041,0-48.963-21.921-48.963-48.963
	s21.921-48.963,48.963-48.963c27.042,0,48.963,21.921,48.963,48.963S284.131,205.07,257.091,205.07z"/>
<path style="fill:#EF4487;" d="M511.196,276.438c-4.618,58.514-28.912,111.49-66.277,152.314l-16.123,16.123
	c-40.834,37.386-93.821,61.701-152.356,66.319l-10.647-8.673L159.36,415.827L43.241,321.254l5.956-5.966l49.935-49.935
	l20.449,17.209c21.002,17.669,50.343,19.56,73.069,6.29c4.639-2.696,9.007-6.039,12.967-10l73.236-73.236
	c8.871-8.861,14.608-19.728,17.126-31.19c4.169-18.777-0.219-39.131-13.427-54.836l-17.199-20.449l11.63-11.63l31.242-31.242
	l7.063-7.063l5.945-5.956l94.584,116.119l86.705,106.422L511.196,276.438z"/>
<path style="fill:#3B9B74;" d="M331.234,234.687c-3.463,0-6.269,2.807-6.269,6.269c0-3.463-2.807-6.269-6.269-6.269
	s-6.269,2.807-6.269,6.269v86.726h12.539h12.539v-86.726C337.503,237.494,334.697,234.687,331.234,234.687z"/>
<path style="fill:#DB1F7E;" d="M353.689,492.698c-24.116,9.968-50.082,16.353-77.249,18.495L43.241,321.253l44.868-44.878
	L353.689,492.698z"/>
<path style="fill:#EDD23C;" d="M339.071,282.405L339.071,282.405h-28.212l0,0c0,9.259-5.139,17.86-13.459,21.923
	c-17.221,8.408-28.859,24.452-28.859,42.86c0,27.123,25.262,49.11,56.424,49.11s56.424-21.987,56.424-49.11
	c0-18.409-11.638-34.452-28.859-42.86C344.209,300.265,339.071,291.663,339.071,282.405z"/>
<g>
</g>
<g>
</g>
<g>
</g>
<g>
</g>
<g>
</g>
<g>
</g>
<g>
</g>
<g>
</g>
<g>
</g>
<g>
</g>
<g>
</g>
<g>
</g>
<g>
</g>
<g>
</g>
<g>
</g>
</svg>
