<?xml version="1.0" encoding="iso-8859-1"?>
<!-- Generator: Adobe Illustrator 19.0.0, SVG Export Plug-In . SVG Version: 6.00 Build 0)  -->
<svg version="1.1" id="Capa_1" xmlns="http://www.w3.org/2000/svg" xmlns:xlink="http://www.w3.org/1999/xlink" x="0px" y="0px"
	 viewBox="0 0 512 512" style="enable-background:new 0 0 512 512;" xml:space="preserve">
<circle style="fill:#EF4487;" cx="255.998" cy="255.999" r="255.998"/>
<path style="fill:#EDD23C;" d="M512,256.001c0,7.011-0.282,13.949-0.836,20.814c-0.585,7.241-1.463,14.399-2.633,21.462
	c-3.281,19.717-8.808,38.682-16.332,56.612c-25.924,61.858-75.452,111.385-137.32,137.309c-18.63,7.816-38.368,13.49-58.932,16.697
	c-6.322,0.993-12.727,1.755-19.195,2.278c-6.844,0.543-13.761,0.825-20.752,0.825c-40.291,0-78.409-9.31-112.315-25.892
	c-53.331-44.586-87.259-111.615-87.259-186.576c0-134.269,108.836-243.104,243.094-243.104c74.971,0,142.011,33.938,186.597,87.29
	C502.7,177.623,512,215.73,512,256.001z"/>
<g>
	<circle style="fill:#DDB334;" cx="143.777" cy="235.028" r="15.672"/>
	<circle style="fill:#DDB334;" cx="121.834" cy="405.858" r="15.672"/>
	<circle style="fill:#DDB334;" cx="436.848" cy="162.931" r="15.672"/>
	<circle style="fill:#DDB334;" cx="180.996" cy="444.968" r="15.672"/>
</g>
<path style="fill:#FFAD61;" d="M508.531,298.277c-3.281,19.717-8.808,38.682-16.332,56.612
	c-25.924,61.858-75.452,111.385-137.32,137.309c-18.63,7.816-38.368,13.49-58.932,16.697
	c-52.746-11.849-120.831-3.406-120.831-40.343c0-42.318-7.837-72.098-50.144-92.473c-42.318-20.375-42.318-79.924-6.269-95.597
	c36.049-15.673,7.053-77.583,39.183-109.714c32.12-32.13,72.087,4.702,108.136-31.347s53.289-54.846,100.31-45.453
	c47.01,9.404,37.606,62.693,95.597,78.367C507.82,184.739,498.04,257.014,508.531,298.277z"/>
<g>
	<path style="fill:#FFDE94;" d="M221.385,208.12c7.479-6.885,0.898-19.355-8.961-16.874c-19.887,5.003-34.169,16.825-34.169,42.215
		c0,37.614-53.286,68.96-53.286,90.901c0,12.902,17.071,16.863,33.208,25.425c7.963,4.226,15.73-6.007,9.482-12.506
		c-0.123-0.129-0.249-0.256-0.374-0.381c-12.538-12.538-16.456-33.696,9.404-59.556s19.591-44.667,32.912-57.988
		C213.155,215.8,217.266,211.912,221.385,208.12z"/>
	<path style="fill:#FFDE94;" d="M371.764,140.304c5.33-8.915,2.424-20.463-6.491-25.793c-8.915-5.33-20.463-2.424-25.793,6.491
		s5.619,7.01,14.534,12.34C362.93,138.671,366.433,149.218,371.764,140.304z"/>
	<path style="fill:#FFDE94;" d="M459.337,240.407c9.381-4.46,13.37-15.68,8.911-25.061c-4.46-9.381-15.68-13.37-25.061-8.911
		c-9.381,4.46,0.786,8.95,5.245,18.331C452.893,234.148,449.956,244.866,459.337,240.407z"/>
</g>
<circle style="fill:#DDB334;" cx="237.807" cy="120.613" r="15.672"/>
<g>
</g>
<g>
</g>
<g>
</g>
<g>
</g>
<g>
</g>
<g>
</g>
<g>
</g>
<g>
</g>
<g>
</g>
<g>
</g>
<g>
</g>
<g>
</g>
<g>
</g>
<g>
</g>
<g>
</g>
</svg>
