<?xml version="1.0" encoding="iso-8859-1"?>
<!-- Generator: Adobe Illustrator 19.0.0, SVG Export Plug-In . SVG Version: 6.00 Build 0)  -->
<svg version="1.1" id="Capa_1" xmlns="http://www.w3.org/2000/svg" xmlns:xlink="http://www.w3.org/1999/xlink" x="0px" y="0px"
	 viewBox="0 0 512 512" style="enable-background:new 0 0 512 512;" xml:space="preserve">
<path style="fill:#523659;" d="M512,256c0,141.385-114.615,256-256,256c-16.886,0-33.395-1.641-49.371-4.754
	c-15.987-3.124-31.441-7.732-46.216-13.688c-7.105-2.863-14.043-6.029-20.814-9.498C56.738,441.689,0,355.464,0,256
	c0-53.53,16.436-103.236,44.534-144.321c18.004-26.331,40.793-49.131,67.135-67.135C152.754,16.436,202.449,0,256,0
	c99.474,0,185.699,56.738,228.059,139.619c3.469,6.76,6.635,13.699,9.488,20.793c5.956,14.764,10.564,30.218,13.688,46.195
	C510.359,222.584,512,239.104,512,256z"/>
<path style="fill:#EDD23C;" d="M512,256c0,141.385-114.615,256-256,256c-16.886,0-33.395-1.641-49.371-4.754
	c-15.987-3.124-31.441-7.732-46.216-13.688c-7.105-2.863-14.043-6.029-20.814-9.498L49.518,131.176l-4.984-19.498L41.19,98.586
	L30.751,57.678l-1.985-7.774c-3.26-12.779,8.349-24.398,21.128-21.138l7.774,1.996l54,13.782l372.391,95.075
	c3.469,6.76,6.635,13.699,9.488,20.793c5.956,14.764,10.564,30.218,13.688,46.195C510.359,222.584,512,239.104,512,256z"/>
<path style="fill:#EA9B28;" d="M512,256c0,141.385-114.615,256-256,256c-16.886,0-33.395-1.641-49.371-4.754
	c-15.987-3.124-31.441-7.732-46.216-13.688c75.222-25.182,145.868-67.688,205.657-127.478
	c59.8-59.8,102.296-130.445,127.478-205.667c5.956,14.764,10.564,30.218,13.688,46.195C510.359,222.584,512,239.104,512,256z"/>
<path style="fill:#FFC34E;" d="M512,256c0,141.385-114.615,256-256,256c-16.886,0-33.395-1.641-49.371-4.754
	c66.267-25.809,128.334-65.431,181.76-118.847c53.436-53.436,93.038-115.524,118.847-181.791C510.359,222.584,512,239.104,512,256z"
	/>
<g>
	<path style="fill:#EF4487;" d="M127.074,48.48c-7.784,27.796-0.744,58.876,21.123,80.742c32.259,32.259,84.56,32.259,116.81,0.009
		c11.384-11.384,18.753-25.278,22.094-39.905"/>
	<path style="fill:#EF4487;" d="M91.672,296.301c4.205-12.674,11.355-24.583,21.44-34.669c34.62-34.62,90.739-34.629,125.358-0.009
		s34.62,90.748,0,125.368c-33.866,33.866-88.339,34.589-123.097,2.171"/>
</g>
<path style="fill:#DB1F7E;" d="M212.985,348.941c-7.477-2.023-11.9-9.719-9.867-17.205l0,0c2.012-7.467,9.719-11.88,17.205-9.867
	l0,0c7.468,2.032,11.89,9.729,9.867,17.206l0,0c-0.665,2.449-1.934,4.571-3.609,6.247l0,0
	C223.149,348.751,218.013,350.299,212.985,348.941z M190.216,378.79c-7.488,1.974-15.163-2.489-17.136-9.977l0,0
	c-1.983-7.497,2.489-15.163,9.976-17.136l0,0c7.488-1.974,15.163,2.49,17.136,9.977l0,0c1.319,5.008-0.238,10.095-3.65,13.506l0,0
	C194.847,376.856,192.695,378.135,190.216,378.79z M215.722,304.454c-5.494,5.454-14.379,5.415-19.833-0.079l0,0
	c-0.01-0.009-0.02-0.02-0.03-0.03l0,0c-0.02-0.02-0.04-0.04-0.05-0.049l0,0c0,0,0,0,0.01-0.01l0,0
	c-0.03-0.03-0.05-0.049-0.079-0.079l0,0c-5.405-5.484-5.375-14.299,0.069-19.744l0,0c5.484-5.484,14.35-5.484,19.833,0l0,0
	c0.02,0.02,0.03,0.03,0.06,0.06l0,0c0.04,0.02,0.079,0.06,0.099,0.099l0,0c5.444,5.484,5.425,14.33-0.029,19.784l0,0
	C215.752,304.424,215.742,304.434,215.722,304.454z M155.686,364.113c-5.484,5.464-14.359,5.454-19.833-0.04l0,0
	c-5.464-5.485-5.444-14.369,0.04-19.833l0,0c5.484-5.464,14.369-5.445,19.833,0.04l0,0c5.465,5.484,5.445,14.35-0.02,19.813l0,0
	C155.696,364.103,155.696,364.103,155.686,364.113z M168.468,296.946c-7.487,1.993-15.172-2.46-17.156-9.936l0,0
	c-1.994-7.488,2.46-15.173,9.946-17.167l0,0c7.467-1.994,15.153,2.46,17.146,9.946l0,0c1.339,5.008-0.218,10.115-3.639,13.537l0,0
	C173.08,295.012,170.947,296.292,168.468,296.946z M131.271,326.826c-7.477-2.003-11.92-9.699-9.917-17.176l0,0
	c2.012-7.487,9.708-11.91,17.185-9.907l0,0c7.488,2.012,11.92,9.699,9.917,17.175l0,0c-0.665,2.469-1.944,4.602-3.62,6.278l0,0
	C141.406,326.628,136.288,328.174,131.271,326.826z"/>
<path style="fill:#E6E8E9;" d="M399.827,288.055c-3.24,2.003-7.511,0.732-9.182-2.691l-11.632-23.871l-7.109-14.574l-0.023,0.011
	l-6.171,3.011c-3.617,1.763-7.167,3.675-10.625,5.712l-0.034,0.023c-6.274,3.709-12.273,7.853-17.94,12.433
	c-1.534,1.225-3.137,2.243-4.82,3.068c-12.135,5.908-27.362,1.134-33.59-11.632c-7.075-14.517,1.18-31.861,16.921-35.524
	c5.518-1.282,10.945-2.873,16.28-4.763c5.324-1.889,10.544-4.088,15.639-6.571l6.206-3.023l-13.029-26.71l-5.712-11.724
	c-1.672-3.435-0.034-7.579,3.538-8.895c7.602-2.816,15.444-4.225,23.218-4.328c24.271-0.355,47.809,11.941,61.021,33.613
	c1.157,1.889,2.233,3.846,3.217,5.873C441.957,230.24,430.177,269.314,399.827,288.055z"/>
<g>
	<path style="fill:#DB1F7E;" d="M231.143,119.972c-4.147,4.147-10.616,5.243-15.908,2.746c-5.209-2.459-8.462-8.057-7.983-13.806
		c0.501-6.01,4.928-11.123,10.791-12.504c5.618-1.324,11.639,1.051,14.845,5.854C236.551,107.748,235.81,115.303,231.143,119.972z"
		/>
	<path style="fill:#DB1F7E;" d="M181.063,105.592c-4.137,4.137-10.621,5.263-15.903,2.75c-5.207-2.476-8.467-8.047-7.987-13.81
		c0.501-6.01,4.928-11.124,10.791-12.504c5.618-1.324,11.638,1.051,14.845,5.854C186.475,93.372,185.734,100.921,181.063,105.592z"
		/>
</g>
<g>
	<path style="fill:#5FB795;" d="M128.316,191.778c-4.203,4.203-10.779,5.294-16.114,2.669c-5.291-2.604-8.479-8.484-7.718-14.34
		c0.735-5.654,4.905-10.39,10.426-11.82c5.688-1.472,11.9,0.904,15.151,5.8C133.714,179.59,132.991,187.103,128.316,191.778z"/>
	<path style="fill:#5FB795;" d="M311.766,168.96c-4.088,4.088-10.438,5.247-15.704,2.86c-5.242-2.376-8.609-7.924-8.213-13.684
		c0.409-5.937,4.628-11.068,10.367-12.623c5.56-1.507,11.689,0.674,15.031,5.373C317.172,156.406,316.564,164.163,311.766,168.96z"
		/>
	<path style="fill:#5FB795;" d="M327.216,352.996c-4.088,4.088-10.45,5.239-15.711,2.854c-5.357-2.428-8.743-8.182-8.174-14.053
		c0.544-5.617,4.498-10.472,9.895-12.121c5.633-1.721,11.963,0.38,15.419,5.165C332.623,340.35,332.035,348.178,327.216,352.996z"/>
	<path style="fill:#5FB795;" d="M459.372,180.396c-4.088,4.088-10.45,5.239-15.711,2.854c-5.357-2.428-8.743-8.182-8.174-14.053
		c0.544-5.617,4.498-10.472,9.895-12.121c5.633-1.721,11.963,0.38,15.419,5.165C464.779,167.75,464.191,175.577,459.372,180.396z"/>
</g>
<g>
	<path style="fill:#448896;" d="M298.976,409.078c-6.23,6.23-15.924,7.984-23.942,4.349c-8.164-3.701-13.323-12.468-12.457-21.415
		c0.829-8.561,6.856-15.959,15.079-18.471c8.585-2.623,18.231,0.579,23.497,7.87C307.216,389.806,306.318,401.734,298.976,409.078z"
		/>
	<path style="fill:#448896;" d="M243.441,212.064c-6.23,6.23-15.924,7.984-23.942,4.349c-8.164-3.701-13.324-12.468-12.457-21.415
		c0.829-8.561,6.856-15.959,15.079-18.471c8.585-2.623,18.231,0.579,23.497,7.87C251.681,192.793,250.785,204.721,243.441,212.064z"
		/>
	<path style="fill:#448896;" d="M73.166,126.699c-6.16,6.16-15.685,7.934-23.652,4.476l-8.323-32.593
		c2.656-3.458,6.354-6.102,10.659-7.419c8.586-2.622,18.238,0.573,23.504,7.865C81.409,107.431,80.516,119.361,73.166,126.699z"/>
</g>
<g>
	<path style="fill:#CED0D1;" d="M380.198,261.067l-1.184,0.427l-7.109-14.574l21.409-11.128l0,0
		C396.202,246.348,390.493,257.352,380.198,261.067z"/>
	<path style="fill:#CED0D1;" d="M347.703,194.422l-1.066,0.67l7.109,14.574l21.948-10.022l0,0
		C369.155,190.869,356.968,188.596,347.703,194.422z"/>
</g>
<g>
</g>
<g>
</g>
<g>
</g>
<g>
</g>
<g>
</g>
<g>
</g>
<g>
</g>
<g>
</g>
<g>
</g>
<g>
</g>
<g>
</g>
<g>
</g>
<g>
</g>
<g>
</g>
<g>
</g>
</svg>
