<?xml version="1.0" encoding="iso-8859-1"?>
<!-- Generator: Adobe Illustrator 19.0.0, SVG Export Plug-In . SVG Version: 6.00 Build 0)  -->
<svg version="1.1" id="Capa_1" xmlns="http://www.w3.org/2000/svg" xmlns:xlink="http://www.w3.org/1999/xlink" x="0px" y="0px"
	 viewBox="0 0 512 512" style="enable-background:new 0 0 512 512;" xml:space="preserve">
<circle style="fill:#5FB795;" cx="256" cy="256" r="256"/>
<path style="fill:#FFC34E;" d="M300.097,23.598c7.846,7.846,12.007,18.006,12.45,28.291L51.878,312.556
	c-10.278-0.45-20.437-4.61-28.283-12.457c-15.768-15.768-16.624-40.784-2.557-57.543c-3.768-1.581-7.3-3.916-10.366-6.982
	c-12.612-12.612-12.619-33.056,0-45.676c6.325-6.325,14.622-9.479,22.911-9.465c-7.773-15.915-5.061-35.679,8.172-48.912
	c8.969-8.969,20.947-13.115,32.686-12.412c-5.505-11.947-3.339-26.554,6.502-36.396c10.403-10.403,26.133-12.213,38.405-5.468
	c-1.566-12.605,2.475-25.793,12.162-35.48c7.832-7.832,17.947-11.977,28.194-12.443c7.071-0.332,14.216,1.094,20.717,4.27
	c-0.015-8.29,3.133-16.579,9.465-22.911c12.612-12.612,33.071-12.619,45.683-0.007c3.066,3.066,5.386,6.613,6.967,10.381
	C259.297,6.988,284.329,7.83,300.097,23.598z"/>
<path style="fill:#EA9B28;" d="M86.742,176.847c-3.769-1.579-7.301-3.906-10.367-6.973c-12.612-12.612-12.621-33.064,0-45.685
	c6.325-6.325,14.62-9.473,22.916-9.464c-6.407-13.116-5.676-28.831,2.179-41.363c-7.479,0.532-14.809,3.636-20.528,9.355
	c-9.838,9.838-12.001,24.449-6.498,36.395c-11.746-0.703-23.719,3.441-32.69,12.411c-13.233,13.233-15.943,32.991-8.168,48.906
	c-8.295-0.009-16.591,3.139-22.916,9.464c-12.621,12.621-12.612,33.073,0,45.685c3.067,3.067,6.599,5.394,10.367,6.973
	C6.974,259.315,7.822,284.33,23.593,300.1c7.848,7.848,18.006,12.001,28.282,12.457l45.284-45.284l20.421-20.421
	c-10.276-0.457-20.433-4.609-28.282-12.457C73.527,218.626,72.679,193.612,86.742,176.847z"/>
<path style="fill:#E6E8E9;" d="M314.587,37.03l195.927,251.246c-6.762,54.641-31.063,107.49-72.906,149.332
	c-41.851,41.851-94.718,66.154-149.359,72.915L37.012,314.606L314.587,37.03z"/>
<path style="fill:#DB1F7E;" d="M85.435,266.184l267.456,227.595c-20.853,8.435-42.612,14.011-64.642,16.744L37.012,314.606
	L85.435,266.184z"/>
<g>
	<path style="fill:#EF4487;" d="M141.868,209.751l67.873-67.873l86.193,91.569v0.018l83.251,88.428l82.617,87.777
		c-7.268,9.748-15.341,19.088-24.194,27.941c-8.861,8.861-18.21,16.925-27.958,24.211l-87.758-82.617l-88.446-83.269h-0.018
		L141.868,209.751z"/>
	<path style="fill:#EF4487;" d="M314.587,37.03l195.927,251.246c-2.724,22.057-8.3,43.798-16.753,64.651L266.165,85.453
		L314.587,37.03z"/>
</g>
<g>
	<path style="fill:#EA9B28;" d="M151.694,128.853c-5.649-11.235-3.228-24.408,5.073-32.942c-3.092,0.412-6.169,1.33-9.113,2.811
		c-14.178,7.129-19.893,24.403-12.763,38.581c7.129,14.178,24.403,19.893,38.581,12.763c2.943-1.481,5.516-3.402,7.69-5.638
		C169.361,145.999,157.344,140.087,151.694,128.853z"/>
	<path style="fill:#EA9B28;" d="M160.886,96.911c-3.717-7.392-2.123-16.059,3.337-21.673c-2.034,0.271-4.058,0.876-5.996,1.849
		c-9.329,4.691-13.088,16.055-8.398,25.384c4.691,9.329,16.055,13.088,25.384,8.398c1.936-0.974,3.629-2.238,5.06-3.709
		C172.51,108.193,164.603,104.303,160.886,96.911z"/>
	<path style="fill:#EA9B28;" d="M229.637,70.643c-4.052-7.213-2.859-15.944,2.34-21.804c-2.02,0.365-4.014,1.061-5.905,2.122
		c-9.103,5.114-12.337,16.639-7.223,25.742c5.114,9.103,16.639,12.337,25.742,7.223c1.89-1.062,3.522-2.403,4.885-3.938
		C241.766,81.38,233.689,77.856,229.637,70.643z"/>
	<path style="fill:#EA9B28;" d="M159.706,29.324c-30.182,18.641-23.939,53.98-23.939,53.98l-16.417-6.058
		c-1.566-12.605,2.475-25.793,12.162-35.48C139.344,33.934,149.459,29.789,159.706,29.324z"/>
	<circle style="fill:#EA9B28;" cx="313.762" cy="312.884" r="92.473"/>
</g>
<circle style="fill:#FFC34E;" cx="313.762" cy="312.884" r="66.842"/>
<g>
</g>
<g>
</g>
<g>
</g>
<g>
</g>
<g>
</g>
<g>
</g>
<g>
</g>
<g>
</g>
<g>
</g>
<g>
</g>
<g>
</g>
<g>
</g>
<g>
</g>
<g>
</g>
<g>
</g>
</svg>
