<?xml version="1.0" encoding="iso-8859-1"?>
<!-- Generator: Adobe Illustrator 19.0.0, SVG Export Plug-In . SVG Version: 6.00 Build 0)  -->
<svg version="1.1" id="Capa_1" xmlns="http://www.w3.org/2000/svg" xmlns:xlink="http://www.w3.org/1999/xlink" x="0px" y="0px"
	 viewBox="0 0 512.009 512.009" style="enable-background:new 0 0 512.009 512.009;" xml:space="preserve">
<path style="fill:#FFC34E;" d="M512.009,256.006c0,11.797-0.794,23.406-2.351,34.774
	C494.246,404.35,404.344,494.242,290.785,509.654c-11.368,1.557-22.977,2.351-34.774,2.351
	c-141.384,0-255.998-114.614-255.998-255.998S114.627,0.008,256.011,0.008S512.009,114.622,512.009,256.006z"/>
<polygon style="fill:#CED0D1;" points="325.93,107.056 393.269,60.405 408.028,189.154 189.154,408.028 92.499,431.886 
	128.761,316.047 "/>
<rect x="64.107" y="64.111" transform="matrix(-0.7071 0.7071 -0.7071 -0.7071 528.4136 218.8824)" style="fill:#9B642D;" width="309.536" height="309.536"/>
<g>
	<polygon style="fill:#844719;" points="21.649,218.881 66.731,173.799 66.055,152.836 0.009,218.881 75.973,294.845 
		76.648,273.881 	"/>
	<polygon style="fill:#844719;" points="98.063,142.467 143.145,97.386 142.469,76.422 76.423,142.467 152.387,218.431 
		153.062,197.467 	"/>
	<polygon style="fill:#844719;" points="174.476,66.054 219.558,20.973 218.883,0.008 152.837,66.054 228.801,142.017 
		229.476,121.053 	"/>
	<polygon style="fill:#844719;" points="97.612,294.845 142.694,249.763 142.018,228.799 75.973,294.845 151.936,370.809 
		152.611,349.845 	"/>
	<polygon style="fill:#844719;" points="174.025,218.431 219.107,173.349 218.432,152.385 152.387,218.431 228.35,294.395 
		229.025,273.431 	"/>
	<polygon style="fill:#844719;" points="250.439,142.017 295.521,96.935 294.846,75.972 228.801,142.017 304.763,217.981 
		305.439,197.017 	"/>
	<polygon style="fill:#844719;" points="173.575,370.809 218.657,325.727 217.982,304.763 151.936,370.809 227.9,446.772 
		228.575,425.809 	"/>
	<polygon style="fill:#844719;" points="249.989,294.395 295.071,249.313 294.396,228.349 228.35,294.395 304.313,370.358 
		304.989,349.395 	"/>
	<polygon style="fill:#844719;" points="326.403,217.981 371.485,172.899 370.81,151.935 304.763,217.981 380.727,293.944 
		381.403,272.981 	"/>
</g>
<path style="fill:#4CC6DB;" d="M509.658,290.779c-12.675,93.371-75.692,170.735-160.809,203.858
	c-18.411,7.178-37.867,12.267-58.065,15.015L189.159,408.027l218.873-218.873L509.658,290.779z"/>
<path style="fill:#24A8C1;" d="M348.849,494.638c-18.411,7.178-37.867,12.267-58.065,15.015l-74.981-74.981l36.54-36.54
	L348.849,494.638z"/>
<polyline style="fill:#E6E8E9;" points="189.154,408.028 219.639,500.021 346.721,293.143 500.402,245.856 408.028,189.154 "/>
<g>
</g>
<g>
</g>
<g>
</g>
<g>
</g>
<g>
</g>
<g>
</g>
<g>
</g>
<g>
</g>
<g>
</g>
<g>
</g>
<g>
</g>
<g>
</g>
<g>
</g>
<g>
</g>
<g>
</g>
</svg>
