<?xml version="1.0" encoding="iso-8859-1"?>
<!-- Generator: Adobe Illustrator 19.0.0, SVG Export Plug-In . SVG Version: 6.00 Build 0)  -->
<svg version="1.1" id="Capa_1" xmlns="http://www.w3.org/2000/svg" xmlns:xlink="http://www.w3.org/1999/xlink" x="0px" y="0px"
	 viewBox="0 0 512 512" style="enable-background:new 0 0 512 512;" xml:space="preserve">
<path style="fill:#523659;" d="M512,256c0,14.116-1.139,27.972-3.344,41.472c-14.514,89.119-75.044,162.784-156.41,195.813
	c-20.908,8.495-43.185,14.294-66.413,16.99c-9.78,1.139-19.738,1.724-29.832,1.724C114.617,511.998,0.003,397.384,0.003,256
	S114.617,0.002,256.002,0.002S512,114.616,512,256z"/>
<path style="fill:#D38B24;" d="M487.305,265.094c-12.557-41.496-35.236-80.567-68.022-113.354
	c-53.131-53.13-122.77-79.695-192.395-79.695c-34.813,0-69.626,6.644-102.387,19.933c-32.748,13.276-63.444,33.197-90.008,59.762
	l-20.986,20.986C4.502,181.73,0,193.544,0,205.345c0,11.801,4.502,23.615,13.507,32.619c18.01,18.01,47.217,18.022,65.239,0"/>
<path style="fill:#5FB795;" d="M40.679,181.713c19.533-10.232,7.088-41.107,39.689-56.699s38.271,1.418,75.126-15.592
	s43.942-17.01,70.874-17.01s48.195,18.427,72.291,18.427c43.942,0,76.283,30.484,76.283,57.057S60.406,284.852,60.406,284.852
	l-31.799-31.799C7.57,232.016,12.821,196.687,39.02,182.593C39.569,182.298,40.122,182.005,40.679,181.713z"/>
<g>
	<circle style="fill:#3B9B74;" cx="121.092" cy="225.257" r="72.006"/>
	<circle style="fill:#3B9B74;" cx="257.461" cy="199.072" r="72.006"/>
</g>
<g>
	<circle style="fill:#EF4487;" cx="139.639" cy="225.257" r="72.006"/>
	<circle style="fill:#EF4487;" cx="276.008" cy="199.072" r="72.006"/>
	<circle style="fill:#EF4487;" cx="384.019" cy="238.35" r="72.006"/>
</g>
<path style="fill:#FFC34E;" d="M508.656,297.472c-18.244,112.023-109.191,199.616-222.823,212.803l-272.32-272.32
	c2.696,2.696,5.642,4.984,8.756,6.875c17.742,10.741,41.148,8.464,56.476-6.865c3.051-3.041,6.144-6.008,9.3-8.882
	c106.788-97.279,272.288-94.333,375.503,8.882c8.62,8.62,16.541,17.68,23.75,27.094
	C495.271,275.445,502.387,286.291,508.656,297.472z"/>
<g>
	<path style="fill:#EA9B28;" d="M352.247,493.284c-20.908,8.495-43.185,14.294-66.413,16.99l-272.32-272.32
		c2.696,2.696,5.642,4.984,8.756,6.875c17.742,10.741,41.148,8.464,56.476-6.865c3.051-3.041,6.144-6.008,9.3-8.882L352.247,493.284
		z"/>
	<path style="fill:#EA9B28;" d="M296.162,269.499c-4.581,0-8.699-2.939-10.262-7.229c-1.537-4.219-0.209-9.086,3.205-11.986
		c3.569-3.033,8.835-3.429,12.815-0.953c3.824,2.379,5.803,6.985,4.935,11.397C305.86,265.773,301.296,269.499,296.162,269.499z"/>
	<path style="fill:#EA9B28;" d="M476.187,370.144c-4.495,0-8.63-2.855-10.211-7.066c-1.574-4.191-0.379-9.093,3.009-12.043
		c3.481-3.032,8.642-3.557,12.643-1.24c3.893,2.254,6.049,6.777,5.315,11.223C486.089,366.209,481.447,370.144,476.187,370.144z"/>
	<path style="fill:#EA9B28;" d="M183.932,258.552c-4.495,0-8.63-2.855-10.211-7.066c-1.574-4.191-0.379-9.093,3.009-12.043
		c3.481-3.032,8.642-3.557,12.643-1.24c3.893,2.254,6.049,6.777,5.315,11.223C193.834,254.618,189.193,258.552,183.932,258.552z"/>
	<path style="fill:#EA9B28;" d="M229.112,372.165c-4.495,0-8.63-2.855-10.211-7.066c-1.574-4.191-0.379-9.093,3.009-12.043
		c3.481-3.032,8.642-3.557,12.643-1.24c3.893,2.254,6.049,6.777,5.316,11.223C239.014,368.231,234.372,372.165,229.112,372.165z"/>
	<path style="fill:#EA9B28;" d="M394.231,245.417c-4.495,0-8.63-2.855-10.211-7.066c-1.574-4.191-0.379-9.093,3.009-12.043
		c3.481-3.032,8.642-3.557,12.643-1.24c3.893,2.254,6.049,6.777,5.315,11.223C404.133,241.482,399.491,245.417,394.231,245.417z"/>
	<path style="fill:#EA9B28;" d="M378.131,365.469c-4.495,0-8.63-2.855-10.211-7.066c-1.574-4.191-0.379-9.093,3.009-12.043
		c3.481-3.032,8.642-3.557,12.643-1.24c3.893,2.254,6.049,6.777,5.315,11.223C388.032,361.535,383.391,365.469,378.131,365.469z"/>
	<path style="fill:#EA9B28;" d="M322.611,451.136c-4.552,0-8.747-2.938-10.272-7.235c-1.505-4.239-0.219-9.077,3.214-11.99
		c3.58-3.039,8.823-3.398,12.81-0.943c3.786,2.331,5.805,6.938,4.96,11.305C332.34,447.349,327.791,451.136,322.611,451.136z"/>
</g>
<g>
</g>
<g>
</g>
<g>
</g>
<g>
</g>
<g>
</g>
<g>
</g>
<g>
</g>
<g>
</g>
<g>
</g>
<g>
</g>
<g>
</g>
<g>
</g>
<g>
</g>
<g>
</g>
<g>
</g>
</svg>
