<?xml version="1.0" encoding="iso-8859-1"?>
<!-- Generator: Adobe Illustrator 19.0.0, SVG Export Plug-In . SVG Version: 6.00 Build 0)  -->
<svg version="1.1" id="Capa_1" xmlns="http://www.w3.org/2000/svg" xmlns:xlink="http://www.w3.org/1999/xlink" x="0px" y="0px"
	 viewBox="0 0 512 512" style="enable-background:new 0 0 512 512;" xml:space="preserve">
<path style="fill:#4CC6DB;" d="M512,256c0,11.306-0.731,22.434-2.152,33.343c-10.93,84.062-62.642,155.303-134.625,193.254
	c-23.615,12.455-49.413,21.326-76.675,25.872C284.714,510.798,270.493,512,256,512C114.615,512,0,397.385,0,256S114.615,0,256,0
	S512,114.615,512,256z"/>
<path style="fill:#EA9B28;" d="M509.848,289.343c-10.93,84.062-62.642,155.303-134.625,193.254
	c-23.615,12.455-49.413,21.326-76.675,25.872l-118.533-93.027l75.982-159.44l164.251-80.793L509.848,289.343z"/>
<path style="fill:#9B642D;" d="M421.35,81.462c25.58,25.58,25.58,67.056,0,92.636l-1.099,1.099l-35.469,35.469l-43.786,43.786
	l-40.857,40.857l-40.866,40.866l-43.777,43.777l-35.478,35.478l-1.091,1.091c-12.791,12.791-29.554,19.185-46.318,19.185
	s-33.528-6.395-46.318-19.185c-68.692-68.692-68.692-180.053,0-248.744l86.316-86.316c34.342-34.342,79.347-51.512,124.372-51.512
	C341.993,29.941,386.999,47.111,421.35,81.462z"/>
<path style="fill:#844719;" d="M176.856,325.955c-67.981-67.981-68.674-177.745-2.099-246.592c-0.72,0.696-1.442,1.388-2.152,2.098
	l-86.316,86.316c-68.693,68.693-68.693,180.053,0,248.744c12.791,12.791,29.554,19.185,46.318,19.185s33.529-6.395,46.318-19.185
	l1.091-1.091l35.478-35.478l43.777-43.777l10.221-10.221c-12.791,12.791-29.554,19.185-46.318,19.185
	C206.411,345.14,189.647,338.745,176.856,325.955z"/>
<path style="fill:#FFC34E;" d="M509.848,289.343c-10.93,84.062-62.642,155.303-134.625,193.254
	c-0.376-0.272-0.752-0.554-1.118-0.846L228.216,367.24l192.031-192.031L509.848,289.343z"/>
<g>
	<path style="fill:#E6E8E9;" d="M97.857,211.323c-4.027,4.027-10.331,5.106-15.474,2.679c-5.075-2.395-8.215-7.839-7.75-13.431
		c0.486-5.845,4.789-10.808,10.49-12.155c5.45-1.287,11.321,1.037,14.421,5.7C103.095,199.46,102.405,206.775,97.857,211.323z"/>
	<path style="fill:#E6E8E9;" d="M216.151,93.029c-4.146,4.146-10.663,5.151-15.872,2.483c-5.005-2.564-7.936-8.103-7.312-13.678
		c0.625-5.587,4.812-10.273,10.236-11.657c5.498-1.402,11.5,0.915,14.635,5.645C221.386,81.175,220.704,88.477,216.151,93.029z"/>
	<path style="fill:#E6E8E9;" d="M156.999,152.181c-4.087,4.087-10.491,5.12-15.664,2.575c-5.145-2.532-8.23-8.23-7.497-13.927
		c0.698-5.419,4.658-9.982,9.925-11.429c5.435-1.493,11.397,0.609,14.68,5.197C162.27,139.945,161.653,147.527,156.999,152.181z"/>
	<path style="fill:#E6E8E9;" d="M110.795,279.711c-4.028,4.028-10.318,5.101-15.461,2.675c-5.067-2.39-8.23-7.838-7.763-13.427
		c0.488-5.845,4.788-10.808,10.49-12.155c5.449-1.287,11.321,1.038,14.421,5.7C116.033,267.845,115.342,275.162,110.795,279.711z"/>
	<path style="fill:#E6E8E9;" d="M227.855,162.651c-4.014,4.014-10.341,5.123-15.469,2.683c-5.138-2.445-8.308-7.981-7.736-13.658
		c0.579-5.754,4.848-10.605,10.472-11.934c5.557-1.312,11.553,1.138,14.601,5.968C233.08,151.034,232.317,158.187,227.855,162.651z"
		/>
	<path style="fill:#E6E8E9;" d="M169.319,221.185c-4.03,4.03-10.322,5.095-15.463,2.67c-5.059-2.387-8.238-7.837-7.757-13.424
		c0.503-5.844,4.777-10.806,10.488-12.153c5.462-1.288,11.314,1.02,14.43,5.691C174.575,209.305,173.86,216.645,169.319,221.185z"/>
	<path style="fill:#E6E8E9;" d="M286.379,104.125c-4.031,4.031-10.32,5.097-15.463,2.67c-5.065-2.391-8.225-7.832-7.759-13.422
		c0.487-5.843,4.791-10.812,10.49-12.155c5.463-1.288,11.313,1.021,14.43,5.691C291.637,92.243,290.917,99.587,286.379,104.125z"/>
</g>
<g>
</g>
<g>
</g>
<g>
</g>
<g>
</g>
<g>
</g>
<g>
</g>
<g>
</g>
<g>
</g>
<g>
</g>
<g>
</g>
<g>
</g>
<g>
</g>
<g>
</g>
<g>
</g>
<g>
</g>
</svg>
