<?xml version="1.0" encoding="iso-8859-1"?>
<!-- Generator: Adobe Illustrator 19.0.0, SVG Export Plug-In . SVG Version: 6.00 Build 0)  -->
<svg version="1.1" id="Capa_1" xmlns="http://www.w3.org/2000/svg" xmlns:xlink="http://www.w3.org/1999/xlink" x="0px" y="0px"
	 viewBox="0 0 512 512" style="enable-background:new 0 0 512 512;" xml:space="preserve">
<path style="fill:#523659;" d="M512,256c0,4.389-0.115,8.756-0.334,13.103c-5.172,102.682-70.855,189.409-162.095,225.259
	c-25.13,9.874-52.203,15.882-80.478,17.303C264.756,511.885,260.389,512,256,512C114.615,512,0,397.385,0,256S114.615,0,256,0
	S512,114.615,512,256z"/>
<path style="fill:#EF4487;" d="M511.666,269.103c-5.172,102.682-70.855,189.409-162.095,225.259
	c-25.13,9.874-52.203,15.882-80.478,17.303l-50.427-40.396l-77.427-62.015l61.618-61.607l206.399-206.409l50.939,63.603
	L511.666,269.103z"/>
<path style="fill:#DB1F7E;" d="M460.194,204.842l-50.939-63.603L202.856,347.648l0,0l-6.165-6.165l-48.264,58.535l-7.189,9.237
	l127.854,102.41c28.275-1.421,55.348-7.429,80.478-17.303l-41.177-41.177c-26.66-26.66-26.66-69.883,0-96.542L460.194,204.842z"/>
<path style="fill:#FFC34E;" d="M410.797,55.495c31.191,31.191,31.191,81.772,0,112.963L168.454,410.801
	c-15.596,15.596-36.039,23.387-56.482,23.4c-20.442-0.014-40.886-7.804-56.481-23.4c-3.458-3.458-6.538-7.154-9.222-11.044
	c-20.271-29.24-18.773-68.983,4.45-96.682C24.018,233.299,38.779,151.28,95.027,95.031c56.249-56.249,138.267-71.009,208.044-44.309
	c15.691-13.158,35.244-19.334,54.557-18.547c14.795,0.609,29.446,5.306,42.125,14.097C403.643,48.957,407.34,52.037,410.797,55.495z
	"/>
<path style="fill:#EA9B28;" d="M109.407,356.885c15.595,15.595,34.115,25.311,51.463,28.419
	c17.328,3.101,33.492-0.411,44.357-11.276l-36.771,36.771c-15.596,15.596-36.046,23.393-56.475,23.393
	c-20.457,0-40.893-7.798-56.488-23.393c-29.507-29.508-31.089-76.342-4.772-107.726C24.02,233.296,38.781,151.278,95.029,95.029
	c-39.182,39.181-39.256,106.514-6.018,169.753C71.451,287.409,79.899,327.377,109.407,356.885z"/>
<circle style="fill:#EF4487;" cx="95.023" cy="95.033" r="53.729"/>
<path style="fill:#DB1F7E;" d="M82.192,107.868c-16.574-16.574-20.045-41.277-10.439-61.27c-5.32,2.557-10.31,6.028-14.721,10.437
	c-20.984,20.984-20.984,55.006,0,75.99s55.006,20.985,75.99,0c4.411-4.411,7.882-9.401,10.437-14.722
	C123.467,127.912,98.765,124.441,82.192,107.868z"/>
<path style="fill:#E6E8E9;" d="M399.754,46.272c2.547,4.656,3.814,9.825,3.814,15.001c0,8.037-3.067,16.075-9.201,22.209
	c-12.262,12.262-32.149,12.255-44.411-0.006c6.135,6.135,9.195,14.165,9.201,22.209c0,8.037-3.074,16.082-9.201,22.209
	c-12.262,12.262-32.157,12.262-44.419,0c6.135,6.135,9.194,14.165,9.201,22.209c0,8.037-3.06,16.068-9.194,22.202
	c-12.268,12.268-32.157,12.262-44.419,0c6.135,6.135,9.195,14.165,9.201,22.209c0,8.037-3.067,16.075-9.194,22.202
	c-12.268,12.268-32.157,12.262-44.419,0c6.135,6.135,9.194,14.165,9.201,22.209c0,8.037-3.067,16.075-9.201,22.209
	c-12.262,12.262-32.149,12.255-44.411-0.006c6.135,6.135,9.195,14.165,9.201,22.209c0,8.037-3.067,16.075-9.201,22.209
	c-12.262,12.262-32.149,12.255-44.411-0.007c6.135,6.135,9.194,14.165,9.201,22.209c0,8.037-3.074,16.082-9.201,22.209
	c-4.71,4.71-10.557,7.613-16.664,8.708c-9.77,1.746-20.21-1.164-27.755-8.708c6.135,6.135,9.195,14.165,9.201,22.209
	c0,8.037-3.061,16.068-9.194,22.202c-10.078,10.078-25.304,11.871-37.21,5.388c-20.271-29.24-18.773-68.983,4.45-96.682
	C24.018,233.299,38.779,151.28,95.027,95.031c56.249-56.249,138.267-71.009,208.044-44.309
	c15.691-13.158,35.244-19.334,54.557-18.547C372.424,32.785,387.075,37.482,399.754,46.272z"/>
<path style="fill:#CED0D1;" d="M95.027,95.031C55.846,134.213,55.77,201.545,89.01,264.784
	c-17.561,22.627-9.113,62.596,20.395,92.103c0.603,0.603,1.211,1.199,1.821,1.781c-9.77,1.746-20.21-1.164-27.755-8.708
	c6.135,6.135,9.195,14.165,9.201,22.209c0,8.037-3.061,16.068-9.194,22.202c-10.078,10.078-25.304,11.871-37.21,5.388
	c-20.271-29.24-18.773-68.983,4.45-96.682C24.018,233.299,38.779,151.28,95.027,95.031z"/>
<g>
	<circle style="fill:#EF4487;" cx="78.858" cy="266.261" r="12.344"/>
	<circle style="fill:#EF4487;" cx="172.554" cy="172.565" r="12.344"/>
	<circle style="fill:#EF4487;" cx="266.261" cy="78.858" r="12.344"/>
	<circle style="fill:#EF4487;" cx="125.701" cy="219.418" r="12.344"/>
	<circle style="fill:#EF4487;" cx="219.408" cy="125.712" r="12.344"/>
</g>
<g>
</g>
<g>
</g>
<g>
</g>
<g>
</g>
<g>
</g>
<g>
</g>
<g>
</g>
<g>
</g>
<g>
</g>
<g>
</g>
<g>
</g>
<g>
</g>
<g>
</g>
<g>
</g>
<g>
</g>
</svg>
