<?xml version="1.0" encoding="iso-8859-1"?>
<!-- Generator: Adobe Illustrator 19.0.0, SVG Export Plug-In . SVG Version: 6.00 Build 0)  -->
<svg version="1.1" id="Capa_1" xmlns="http://www.w3.org/2000/svg" xmlns:xlink="http://www.w3.org/1999/xlink" x="0px" y="0px"
	 viewBox="0 0 512 512" style="enable-background:new 0 0 512 512;" xml:space="preserve">
<path style="fill:#FFC34E;" d="M482.034,376.32c-11.619,21.817-26.624,42.308-45.014,60.698
	c-10.334,10.334-21.337,19.602-32.862,27.794c-10.376,7.377-21.17,13.887-32.298,19.54
	c-96.099,48.786-216.545,33.008-296.876-47.334c-99.976-99.976-99.976-262.06,0-362.036c99.965-99.976,262.06-99.976,362.036,0
	C518.605,156.567,533.61,279.521,482.034,376.32z"/>
<path style="fill:#F2F2F2;" d="M482.034,376.32c-11.619,21.817-26.624,42.308-45.014,60.698
	c-19.634,19.634-41.671,35.412-65.16,47.334c-0.199-0.188-0.397-0.376-0.585-0.575c-16.75-16.739-16.76-43.886,0-60.635
	l-63.394-63.394l48.504-48.504l63.394,63.384c16.739-16.739,43.896-16.739,60.646,0C480.978,375.181,481.511,375.745,482.034,376.32
	z"/>
<path style="fill:#CED0D1;" d="M404.158,464.812c-10.376,7.377-21.17,13.887-32.298,19.54c-0.199-0.188-0.397-0.376-0.585-0.575
	c-16.75-16.739-16.76-43.886,0-60.635l-63.394-63.394l22.538-22.549l63.394,63.394c-8.798,8.798-13.375,40.532,3.365,57.281
	C397.69,458.376,400.532,461.207,404.158,464.812z"/>
<path style="fill:#9B642D;" d="M258.222,55.233C194.338-8.651,96.357-14.246,39.374,42.736s-51.387,154.965,12.497,218.849
	s228.834,136.447,285.816,79.465S322.107,119.117,258.222,55.233z"/>
<g>
	<path style="fill:#844719;" d="M164.491,51.106c-3.091,3.091-7.894,3.916-11.844,2.053c-3.884-1.832-6.311-6.008-5.955-10.294
		c0.373-4.476,3.674-8.287,8.039-9.316c4.191-0.988,8.675,0.79,11.068,4.369C168.536,42.01,167.968,47.63,164.491,51.106z"/>
	<path style="fill:#844719;" d="M171.193,93.11c-3.128,3.128-8.03,3.935-11.999,1.981c-3.846-1.894-6.221-6.117-5.784-10.395
		c0.451-4.412,3.713-8.126,8.027-9.147c4.181-0.99,8.683,0.798,11.062,4.373C175.23,84.02,174.675,89.628,171.193,93.11z"/>
	<path style="fill:#844719;" d="M205.794,70.685c-3.098,3.098-7.891,3.908-11.848,2.051c-3.937-1.847-6.374-6.13-5.937-10.463
		c0.445-4.409,3.717-8.128,8.026-9.146c4.307-1.018,8.912,0.908,11.246,4.66C209.815,61.863,209.185,67.295,205.794,70.685z"/>
	<path style="fill:#844719;" d="M263.324,277.548c-3.079,3.079-7.902,3.914-11.837,2.063c-3.844-1.81-6.26-5.889-5.977-10.132
		c0.303-4.547,3.627-8.437,8.053-9.487c4.203-0.997,8.742,0.821,11.102,4.437C267.337,268.517,266.788,274.084,263.324,277.548z"/>
	<path style="fill:#844719;" d="M90.795,188.729c-3.088,3.088-7.902,3.918-11.847,2.05c-3.882-1.838-6.309-6.001-5.952-10.291
		c0.373-4.476,3.673-8.287,8.039-9.316c4.192-0.988,8.675,0.788,11.068,4.368C94.836,179.63,94.268,185.256,90.795,188.729z"/>
	<path style="fill:#844719;" d="M270.085,318.857c-3.081,3.081-7.898,3.907-11.835,2.059c-3.839-1.801-6.255-5.896-5.98-10.13
		c0.294-4.534,3.633-8.448,8.048-9.494c4.216-0.999,8.741,0.824,11.109,4.443C274.102,309.823,273.546,315.394,270.085,318.857z"/>
	<path style="fill:#844719;" d="M229.388,296.721c-3.134,3.134-8.039,3.924-12.006,1.973c-3.975-1.955-6.303-6.339-5.742-10.727
		c0.538-4.209,3.732-7.721,7.825-8.762c4.22-1.074,8.81,0.693,11.223,4.32C233.414,287.619,232.871,293.238,229.388,296.721z"/>
</g>
<path style="fill:#9B642D;" d="M322.702,300.943l-25.121,25.121l-25.121,25.121l30.293,30.293c6.937,6.937,18.184,6.937,25.121,0
	c6.937-6.937,6.937-18.184,0-25.121c6.937,6.937,18.184,6.937,25.121,0c6.937-6.937,6.937-18.184,0-25.121
	c6.937,6.937,18.184,6.937,25.121,0c6.937-6.937,6.937-18.184,0-25.121l-30.293-30.293L322.702,300.943z"/>
<path style="fill:#844719;" d="M93.924,219.528c45.381,45.381,132.25,104.633,190.866,123.061
	c9.435,2.966,17.993,8.203,24.987,15.198l8.33,8.33c4.581,4.581,10.049,7.138,14.415,7.16c-0.766,3.086-2.387,6-4.84,8.383
	c-7.024,6.826-18.37,6.383-25.297-0.543l-19.581-19.581c-73.59,3.103-181.957-50.973-230.936-99.953
	C-11.717,197.998-17.554,100.631,38.592,43.54C6.008,77.734,30.545,156.148,93.924,219.528z"/>
<g>
</g>
<g>
</g>
<g>
</g>
<g>
</g>
<g>
</g>
<g>
</g>
<g>
</g>
<g>
</g>
<g>
</g>
<g>
</g>
<g>
</g>
<g>
</g>
<g>
</g>
<g>
</g>
<g>
</g>
</svg>
