<?xml version="1.0" encoding="iso-8859-1"?>
<!-- Generator: Adobe Illustrator 19.0.0, SVG Export Plug-In . SVG Version: 6.00 Build 0)  -->
<svg version="1.1" id="Capa_1" xmlns="http://www.w3.org/2000/svg" xmlns:xlink="http://www.w3.org/1999/xlink" x="0px" y="0px"
	 viewBox="0 0 512 512" style="enable-background:new 0 0 512 512;" xml:space="preserve">
<path style="fill:#5FB795;" d="M512,256c0,141.385-114.615,256-256,256c-14.869,0-29.435-1.264-43.604-3.709
	c-41.294-7.074-79.203-24.054-111.208-48.389C39.696,413.142,0,339.205,0,256C0,114.615,114.615,0,256,0
	c83.216,0,157.163,39.706,203.922,101.209c24.325,32.005,41.294,69.904,48.368,111.188C510.736,226.565,512,241.131,512,256z"/>
<path style="fill:#FFC34E;" d="M508.291,212.396c-7.074-41.284-24.043-79.182-48.368-111.188
	C416.935,68.514,363.29,49.11,305.11,49.11c-141.385,0-256,114.615-256,256c0,58.159,19.393,111.804,52.078,154.791
	c32.005,24.336,69.914,41.315,111.208,48.389C226.565,510.736,241.131,512,256,512c141.385,0,256-114.615,256-256
	C512,241.131,510.736,226.565,508.291,212.396z M305.11,406.747c-56.132,0-101.637-45.505-101.637-101.637
	s45.505-101.637,101.637-101.637s101.637,45.505,101.637,101.637S361.242,406.747,305.11,406.747z"/>
<path style="fill:#EF4487;" d="M508.291,212.396c-5.632-5.13-10.898-10.365-14.336-16.3c-9.989-17.251-7.387-44.44-21.389-58.441
	c-14.002-14.002-41.19-11.4-58.441-21.389c-17.011-9.843-28.285-34.764-47.71-39.957c-18.777-5.026-40.939,10.794-61.304,10.794
	s-42.527-15.82-61.304-10.794c-19.425,5.193-30.699,30.114-47.71,39.957c-17.251,9.989-44.44,7.387-58.441,21.389
	c-14.002,14.002-11.4,41.19-21.389,58.441c-9.843,17.011-34.764,28.285-39.957,47.71c-5.026,18.777,10.794,40.939,10.794,61.304
	s-15.82,42.527-10.794,61.304c5.193,19.425,30.114,30.699,39.957,47.71c9.989,17.251,7.387,44.439,21.389,58.441
	c14.002,14.002,41.19,11.4,58.441,21.389c5.935,3.438,11.17,8.704,16.3,14.336c9.655,1.661,19.498,2.779,29.487,3.323
	C246.554,511.875,251.267,512,256,512c78.158,0,148.146-35.025,195.103-90.248c3.281-3.866,6.457-7.826,9.519-11.891
	c21.285-28.264,36.854-61.074,44.972-96.716c1.515-6.614,2.759-13.322,3.741-20.125C511.091,280.931,512,268.57,512,256
	C512,241.131,510.736,226.565,508.291,212.396z M305.11,406.747c-56.132,0-101.637-45.505-101.637-101.637
	s45.505-101.637,101.637-101.637s101.637,45.505,101.637,101.637S361.242,406.747,305.11,406.747z"/>
<path style="fill:#DB1F7E;" d="M305.11,174.017c-72.401,0-131.093,58.692-131.093,131.093s58.692,131.093,131.093,131.093
	s131.093-58.692,131.093-131.093S377.511,174.017,305.11,174.017z M305.11,406.747c-56.132,0-101.637-45.505-101.637-101.637
	s45.505-101.637,101.637-101.637s101.637,45.505,101.637,101.637S361.242,406.747,305.11,406.747z"/>
<g>
	<circle style="fill:#F963A5;" cx="446.171" cy="165.376" r="21.943"/>
	<circle style="fill:#F963A5;" cx="357.355" cy="115.221" r="21.943"/>
</g>
<g>
	<path style="fill:#F2F2F2;" d="M250.396,144.958L250.396,144.958c-3.324-2.295-4.159-6.85-1.864-10.174l15.434-22.357
		c2.295-3.324,6.85-4.159,10.174-1.864l0,0c3.324,2.295,4.159,6.85,1.864,10.174l-15.434,22.357
		C258.277,146.418,253.721,147.252,250.396,144.958z"/>
	<path style="fill:#F2F2F2;" d="M142.62,316.945L142.62,316.945c-3.306,2.321-7.868,1.522-10.189-1.784l-15.611-22.234
		c-2.321-3.306-1.522-7.868,1.784-10.189l0,0c3.306-2.321,7.868-1.522,10.189,1.784l15.611,22.234
		C146.725,310.061,145.926,314.623,142.62,316.945z"/>
	<path style="fill:#F2F2F2;" d="M358.706,478.278L358.706,478.278c-3.306,2.321-7.868,1.522-10.189-1.784l-15.611-22.234
		c-2.321-3.306-1.522-7.868,1.784-10.189l0,0c3.306-2.321,7.868-1.522,10.189,1.784l15.611,22.233
		C362.811,471.394,362.012,475.956,358.706,478.278z"/>
	<path style="fill:#F2F2F2;" d="M460.622,409.861c-3.062,4.065-6.238,8.025-9.519,11.891l-12.351-17.596
		c-2.32-3.302-1.526-7.868,1.776-10.188c1.285-0.899,2.748-1.327,4.2-1.327c2.299,0,4.566,1.087,5.998,3.114L460.622,409.861z"/>
	<path style="fill:#F2F2F2;" d="M509.336,293.021c-0.982,6.802-2.226,13.511-3.741,20.125l-14.702-20.94
		c-2.32-3.302-1.526-7.868,1.787-10.188c1.275-0.899,2.748-1.327,4.2-1.327c2.299,0,4.566,1.087,5.987,3.114L509.336,293.021z"/>
	<path style="fill:#F2F2F2;" d="M228.659,213.741L228.659,213.741c-4.029-0.287-7.062-3.788-6.774-7.817l1.936-27.098
		c0.288-4.029,3.788-7.062,7.817-6.774l0,0c4.029,0.287,7.062,3.788,6.774,7.817l-1.936,27.098
		C236.189,210.996,232.688,214.03,228.659,213.741z"/>
	<path style="fill:#F2F2F2;" d="M439.399,282.909L439.399,282.909c-4.029-0.288-7.062-3.788-6.774-7.817l1.936-27.098
		c0.288-4.029,3.788-7.062,7.817-6.774l0,0c4.029,0.287,7.062,3.788,6.774,7.817l-1.936,27.098
		C446.928,280.164,443.429,283.198,439.399,282.909z"/>
	<path style="fill:#F2F2F2;" d="M463.432,214.991L463.432,214.991c-4.029-0.287-7.062-3.788-6.774-7.817l1.936-27.098
		c0.288-4.029,3.788-7.062,7.817-6.774l0,0c4.029,0.287,7.062,3.788,6.774,7.817l-1.936,27.098
		C470.961,212.246,467.461,215.279,463.432,214.991z"/>
	<path style="fill:#F2F2F2;" d="M386.278,219.711L386.278,219.711c-2.02-3.498-0.821-7.972,2.677-9.991l23.528-13.584
		c3.498-2.02,7.972-0.821,9.991,2.677l0,0c2.02,3.498,0.821,7.972-2.677,9.991l-23.528,13.584
		C392.771,224.408,388.297,223.209,386.278,219.711z"/>
	<path style="fill:#F2F2F2;" d="M396.387,434.458L396.387,434.458c-3.942,0.88-7.851-1.604-8.731-5.546l-5.915-26.515
		c-0.88-3.942,1.604-7.851,5.546-8.731l0,0c3.942-0.88,7.851,1.604,8.731,5.546l5.915,26.515
		C402.813,429.669,400.33,433.578,396.387,434.458z"/>
	<path style="fill:#F2F2F2;" d="M432.253,348.233L432.253,348.233c-2.02-3.498-0.821-7.972,2.677-9.991l23.528-13.584
		c3.498-2.02,7.972-0.821,9.991,2.677l0,0c2.02,3.498,0.821,7.972-2.677,9.991l-23.528,13.584
		C438.746,352.93,434.272,351.731,432.253,348.233z"/>
	<path style="fill:#F2F2F2;" d="M368.346,159.611L368.346,159.611c-4.029-0.287-7.062-3.788-6.774-7.817l1.936-27.098
		c0.288-4.029,3.788-7.062,7.817-6.774l0,0c4.029,0.288,7.062,3.788,6.774,7.817l-1.936,27.098
		C375.875,156.866,372.375,159.9,368.346,159.611z"/>
	<path style="fill:#F2F2F2;" d="M128.011,219.322L128.011,219.322c-1.541-3.734,0.237-8.01,3.972-9.551l25.113-10.362
		c3.734-1.541,8.01,0.237,9.551,3.972l0,0c1.541,3.734-0.237,8.01-3.972,9.551l-25.113,10.362
		C133.828,224.834,129.553,223.056,128.011,219.322z"/>
	<path style="fill:#F2F2F2;" d="M157.444,256.282L157.444,256.282c2.02-3.498,6.493-4.697,9.991-2.677l23.528,13.584
		c3.498,2.02,4.697,6.493,2.677,9.991l0,0c-2.02,3.498-6.493,4.697-9.991,2.677l-23.528-13.584
		C156.624,264.254,155.424,259.78,157.444,256.282z"/>
	<path style="fill:#F2F2F2;" d="M120.698,375.402L120.698,375.402c-1.541-3.734,0.237-8.01,3.972-9.551l25.113-10.362
		c3.734-1.541,8.01,0.237,9.551,3.972l0,0c1.541,3.734-0.237,8.01-3.972,9.551l-25.113,10.362
		C126.515,380.914,122.239,379.136,120.698,375.402z"/>
	<path style="fill:#F2F2F2;" d="M242.951,441.885L242.951,441.885c-1.541-3.734,0.237-8.01,3.972-9.551l25.113-10.362
		c3.734-1.541,8.01,0.237,9.551,3.972l0,0c1.541,3.734-0.237,8.01-3.972,9.551l-25.113,10.362
		C248.768,447.398,244.493,445.62,242.951,441.885z"/>
	<path style="fill:#F2F2F2;" d="M160.914,448.543L160.914,448.543c0-4.04,3.275-7.314,7.314-7.314h27.167
		c4.04,0,7.314,3.275,7.314,7.314l0,0c0,4.04-3.275,7.314-7.314,7.314h-27.167C164.189,455.858,160.914,452.583,160.914,448.543z"/>
	<path style="fill:#F2F2F2;" d="M190.761,406.311L190.761,406.311c-3.869-1.161-6.065-5.239-4.904-9.108l7.809-26.021
		c1.161-3.869,5.239-6.065,9.108-4.904l0,0c3.869,1.161,6.065,5.239,4.904,9.108l-7.809,26.021
		C198.708,405.277,194.63,407.473,190.761,406.311z"/>
	<path style="fill:#F2F2F2;" d="M264.119,483.871c0,0.7-0.104,1.411-0.313,2.111L256,512c-4.733,0-9.446-0.125-14.117-0.387
		c-0.293-1.223-0.282-2.529,0.104-3.814l7.805-26.028c1.17-3.866,5.245-6.06,9.112-4.901
		C262.071,477.821,264.119,480.726,264.119,483.871z"/>
	<path style="fill:#F2F2F2;" d="M165.267,154.089L165.267,154.089c0.712-3.977,4.512-6.624,8.489-5.912l26.742,4.786
		c3.977,0.712,6.624,4.512,5.912,8.489l0,0c-0.712,3.977-4.512,6.624-8.489,5.912l-26.742-4.786
		C167.202,161.866,164.557,158.066,165.267,154.089z"/>
	<path style="fill:#F2F2F2;" d="M300.993,151.455L300.993,151.455c2.857-2.857,7.488-2.857,10.343,0l19.21,19.21
		c2.857,2.857,2.857,7.488,0,10.343l0,0c-2.857,2.857-7.488,2.857-10.344,0l-19.21-19.21
		C298.137,158.943,298.137,154.312,300.993,151.455z"/>
</g>
<g>
</g>
<g>
</g>
<g>
</g>
<g>
</g>
<g>
</g>
<g>
</g>
<g>
</g>
<g>
</g>
<g>
</g>
<g>
</g>
<g>
</g>
<g>
</g>
<g>
</g>
<g>
</g>
<g>
</g>
</svg>
