<?xml version="1.0" encoding="iso-8859-1"?>
<!-- Generator: Adobe Illustrator 19.0.0, SVG Export Plug-In . SVG Version: 6.00 Build 0)  -->
<svg version="1.1" id="Capa_1" xmlns="http://www.w3.org/2000/svg" xmlns:xlink="http://www.w3.org/1999/xlink" x="0px" y="0px"
	 viewBox="0 0 512.001 512.001" style="enable-background:new 0 0 512.001 512.001;" xml:space="preserve">
<path style="fill:#523659;" d="M437.588,78.262c46.191,46.191,70.888,105.749,74.056,166.232
	c3.659,69.422-21.024,140.053-74.056,193.085s-123.672,77.722-193.107,74.064c-60.468-3.183-120.019-27.873-166.21-74.064
	c-99.223-99.223-99.223-260.095,0-359.317S338.365-20.96,437.588,78.262z"/>
<rect x="-13.037" y="273.468" transform="matrix(0.7071 0.7071 -0.7071 0.7071 250.9902 9.4368)" style="fill:#EDD23C;" width="254.281" height="68.444"/>
<rect x="87.796" y="199.671" transform="matrix(-0.7071 0.7071 -0.7071 -0.7071 393.2415 490.7372)" style="fill:#DDB334;" width="14.38" height="254.281"/>
<g>
	
		<rect x="-10.168" y="127.374" transform="matrix(0.7071 0.7071 -0.7071 0.7071 161.5972 -66.9388)" style="fill:#EDD23C;" width="343.538" height="68.444"/>
	
		<rect x="-12.862" y="188.772" transform="matrix(0.7071 0.7071 -0.7071 0.7071 194.6451 -23.9266)" style="fill:#EDD23C;" width="278.133" height="68.444"/>
</g>
<g>
	
		<rect x="91.466" y="106.537" transform="matrix(-0.7071 0.7071 -0.7071 -0.7071 333.6497 329.1517)" style="fill:#DDB334;" width="14.38" height="254.281"/>
	
		<rect x="135.292" y="8.94" transform="matrix(-0.7071 0.7071 -0.7071 -0.7071 371.0129 207.7397)" style="fill:#DDB334;" width="14.38" height="343.538"/>
</g>
<g>
	
		<rect x="180.569" y="79.883" transform="matrix(0.7071 0.7071 -0.7071 0.7071 170.8101 -184.1627)" style="fill:#EDD23C;" width="254.281" height="68.444"/>
	
		<rect x="83.938" y="91.986" transform="matrix(0.7071 0.7071 -0.7071 0.7071 154.5591 -120.7223)" style="fill:#EDD23C;" width="278.133" height="68.444"/>
</g>
<g>
	
		<rect x="203.218" y="3.544" transform="matrix(-0.7071 0.7071 -0.7071 -0.7071 466.5555 110.4264)" style="fill:#DDB334;" width="14.38" height="296.592"/>
	
		<rect x="281.39" y="6.073" transform="matrix(-0.7071 0.7071 -0.7071 -0.7071 586.8329 23.3523)" style="fill:#DDB334;" width="14.38" height="254.281"/>
	<path style="fill:#DDB334;" d="M297.373,55.377L421.8,179.803l-48.398,48.398l-27.865-27.865l-48.398,48.398l10.119,10.119
		l-48.398,48.398l-10.119-10.119l-48.398,48.398l27.865,27.865l-48.398,48.398L55.384,297.366l26.058-26.058
		c5.93-5.93,15.409-6.337,21.827-0.94l9.445,7.946c10.347,8.704,22.688,13.639,35.286,14.871c8.858,0.865,17.849-0.088,26.362-2.853
		c9.445-3.065,18.31-8.338,25.768-15.795l74.422-74.422c7.443-7.443,12.715-16.309,15.781-25.754
		c2.758-8.521,3.718-17.519,2.846-26.384c-1.232-12.598-6.16-24.933-14.864-35.265l-7.946-9.445
		c-5.399-6.417-4.99-15.897,0.94-21.827L297.373,55.377z"/>
</g>
<path style="fill:#EF4487;" d="M334.484,52.003l96.108,117.991l81.394,99.917c-2.784,61.138-27.461,121.459-74.038,168.034
	s-106.896,71.252-168.034,74.038l-99.926-81.385L51.997,334.49l46.313-46.313c5.931-5.931,15.414-6.337,21.831-0.936l9.433,7.941
	c17.625,14.821,41.034,18.702,61.658,12.019c9.441-3.063,18.307-8.336,25.763-15.792l74.423-74.423
	c7.447-7.447,12.72-16.313,15.783-25.754c6.684-20.625,2.803-44.034-12.029-61.65l-7.941-9.442
	c-5.397-6.417-4.988-15.896,0.941-21.825L334.484,52.003z"/>
<path style="fill:#CED0D1;" d="M437.583,437.578c-41.295,41.295-93.272,65.406-147.042,72.323
	c-15.276,1.97-30.697,2.551-46.065,1.742l-73.153-59.371l24.443-24.433l256.502-256.502l59.381,73.153
	C515.299,313.921,490.617,384.544,437.583,437.578z"/>
<path style="fill:#E6E8E9;" d="M437.583,437.578c-41.295,41.295-93.272,65.406-147.042,72.323l-94.775-82.061l256.502-256.502
	l59.381,73.153C515.299,313.921,490.617,384.544,437.583,437.578z"/>
<polygon style="fill:#DB1F7E;" points="51.997,334.49 63.994,322.493 201.218,422.383 182.672,440.929 "/>
<g>
</g>
<g>
</g>
<g>
</g>
<g>
</g>
<g>
</g>
<g>
</g>
<g>
</g>
<g>
</g>
<g>
</g>
<g>
</g>
<g>
</g>
<g>
</g>
<g>
</g>
<g>
</g>
<g>
</g>
</svg>
