<?xml version="1.0" encoding="iso-8859-1"?>
<!-- Generator: Adobe Illustrator 19.0.0, SVG Export Plug-In . SVG Version: 6.00 Build 0)  -->
<svg version="1.1" id="Capa_1" xmlns="http://www.w3.org/2000/svg" xmlns:xlink="http://www.w3.org/1999/xlink" x="0px" y="0px"
	 viewBox="0 0 512 512" style="enable-background:new 0 0 512 512;" xml:space="preserve">
<circle style="fill:#EF4487;" cx="256" cy="256" r="256"/>
<path style="fill:#EA7D39;" d="M400.198,188.316l26.248,34.503l76.48,100.52c-11.278,41.671-33.253,81.025-65.909,113.68
	c-8.101,8.101-16.618,15.549-25.487,22.338c-26.846,20.564-56.868,35.091-88.193,43.571L188.315,400.199l68.622-132.917
	L400.198,188.316z"/>
<path style="fill:#FFAD61;" d="M426.446,222.818l76.48,100.52c-11.278,41.671-33.253,81.025-65.909,113.68
	c-8.101,8.101-16.618,15.549-25.487,22.338l-95.671-72.789c-15.973-12.153-17.558-35.604-3.367-49.796L426.446,222.818z"/>
<path style="fill:#E6E8E9;" d="M240.918,66.248c-0.187-9.082-2.798-16.606-8.108-21.916c-12.04-12.04-35.431-10.24-62.665,2.359
	c0.984-9.171-0.798-16.709-5.744-21.653c-11.221-11.221-35.773-6.185-62.541,10.605l0,0c-59.607,30.03-68.712-18.555-68.712-18.555
	C-4.409,54.644-4.929,134.45,25.031,164.408c4.946,4.945,12.482,6.728,21.653,5.744c-12.599,27.232-14.4,50.623-2.359,62.664
	c5.31,5.31,12.833,7.921,21.916,8.108c-9.112,26.339-8.589,48.335,3.732,60.657c27.08,27.08,100.879-2.813,164.834-66.768
	S328.655,97.061,301.575,69.98C289.253,57.659,267.257,57.136,240.918,66.248z"/>
<path style="fill:#CED0D1;" d="M33.153,17.08c0,0,0,0.014,0.007,0.034c-0.16,2.218-9.766,145.868,77.191,125.155
	c0,0-51.122,42.775-12.52,66.771c23.606,14.676,53.855-0.702,73.782-14.856c-25.944,24.162-61.43,68.496-17.938,101.249
	c-36.3,18.369-67.926,21.923-83.701,6.148c-12.325-12.325-12.84-34.318-3.728-60.665c-9.083-0.181-16.609-2.796-21.916-8.103
	c-12.039-12.039-10.239-35.43,2.357-62.66c-9.174,0.981-16.707-0.807-21.652-5.752C-4.921,134.445-4.407,54.639,33.153,17.08z"/>
<path style="fill:#FFAD61;" d="M396.256,192.257L192.251,396.263c-12.65,12.65-33.158,12.65-45.807,0L99.931,349.75
	c-12.65-12.65-12.65-33.158,0-45.807L303.936,99.937c12.65-12.65,33.158-12.65,45.807,0l46.513,46.513
	C408.905,159.1,408.905,179.609,396.256,192.257z"/>
<path style="fill:#EA7D39;" d="M193.73,348.976l-46.513-46.513c-12.65-12.65-12.65-33.158,0-45.807l-47.287,47.287
	c-12.65,12.65-12.65,33.158,0,45.807l46.513,46.513c12.65,12.65,33.158,12.65,45.807,0l47.287-47.287
	C226.888,361.626,206.38,361.626,193.73,348.976z"/>
<g>
</g>
<g>
</g>
<g>
</g>
<g>
</g>
<g>
</g>
<g>
</g>
<g>
</g>
<g>
</g>
<g>
</g>
<g>
</g>
<g>
</g>
<g>
</g>
<g>
</g>
<g>
</g>
<g>
</g>
</svg>
