<?xml version="1.0" encoding="iso-8859-1"?>
<!-- Generator: Adobe Illustrator 19.0.0, SVG Export Plug-In . SVG Version: 6.00 Build 0)  -->
<svg version="1.1" id="Capa_1" xmlns="http://www.w3.org/2000/svg" xmlns:xlink="http://www.w3.org/1999/xlink" x="0px" y="0px"
	 viewBox="0 0 512.001 512.001" style="enable-background:new 0 0 512.001 512.001;" xml:space="preserve">
<circle style="fill:#523659;" cx="256.001" cy="256.433" r="255.568"/>
<polygon style="fill:#9B642D;" points="253.088,201.632 96.053,17.418 116.486,0 266.44,190.251 "/>
<polygon style="fill:#844719;" points="96.053,17.418 107.215,7.903 248.359,182.998 230.262,174.855 "/>
<polygon style="fill:#9B642D;" points="253.088,201.632 96.053,17.418 116.486,0 266.44,190.251 "/>
<polygon style="fill:#844719;" points="96.053,17.418 107.215,7.903 248.359,182.998 230.262,174.855 "/>
<g>
	<path style="fill:#EA9B28;" d="M99.574,204.685c7.614-25.86,46.69-85.356,141.163-76.448l36.133,58.933l-127.958,95.272"/>
	<path style="fill:#EA9B28;" d="M116.924,333.209C75.198,304.697,41.025,267.561,64.767,228.2
		c26.426-43.812,108.486-15.994,137.694-54.243s57.709-83.461,123.084-63.984"/>
</g>
<g>
	<path style="fill:#FFC34E;" d="M134.077,286.687c-7.089-7.089-16.041-17.657-11.952-27.528
		c3.738-9.023,16.669-13.226,40.698-13.226v10.431c-26.887,0-30.591,5.653-31.06,6.786c-0.57,1.375-0.766,5.703,9.692,16.16
		L134.077,286.687z"/>
	<path style="fill:#FFC34E;" d="M113.235,311.167c-19.044-19.046-29.46-43.578-25.917-61.048
		c1.955-9.633,7.907-16.719,17.214-20.493c8.621-3.496,20.557-4.865,34.377-6.451c30.101-3.454,67.562-7.753,95.329-35.52
		l7.376,7.376c-30.34,30.34-71.478,35.06-101.516,38.507c-13.062,1.499-24.344,2.794-31.648,5.755
		c-6.08,2.465-9.649,6.684-10.909,12.899c-2.833,13.965,6.654,35.183,23.07,51.599L113.235,311.167z"/>
	<path style="fill:#FFC34E;" d="M113.981,337.516c-24.677-16.863-42.221-33.697-52.143-50.035
		c-12.957-21.333-13.474-42.184-1.538-61.975c15.047-24.947,45.464-28.572,74.878-32.078c25.941-3.092,50.442-6.013,63.137-22.636
		c1.892-2.477,3.781-4.985,5.678-7.502c27.395-36.355,58.441-77.561,123.042-58.315l-2.978,9.997
		c-26.164-7.795-47.463-5.521-67.024,7.155c-17.511,11.347-31.337,29.696-44.707,47.441c-1.91,2.535-3.813,5.06-5.718,7.555
		c-15.371,20.128-43.24,23.451-70.192,26.664c-28.165,3.358-54.767,6.528-67.181,27.108c-9.91,16.43-9.412,33.169,1.521,51.172
		c9.146,15.06,25.67,30.818,49.113,46.837L113.981,337.516z"/>
</g>
<path style="fill:#5FB795;" d="M335.647,85.118l173.874,201.975c-6.56,54.937-30.866,108.121-72.918,150.173
	c-25.688,25.688-55.524,44.754-87.375,57.196c-19.219,7.508-39.179,12.596-59.4,15.288L86.262,334.503L335.647,85.118z"/>
<g>
	<path style="fill:#3B9B74;" d="M137.766,282.999l211.462,211.462c-19.219,7.508-39.179,12.596-59.4,15.288L86.262,334.503
		L137.766,282.999z"/>
	<path style="fill:#3B9B74;" d="M307.421,107.783l97.158,162.022c3.845,6.412,2.834,14.617-2.452,19.904L257.766,434.07
		c-5.459,5.459-13.931,6.502-20.551,2.533L87.391,333.374L307.421,107.783z"/>
	<path style="fill:#3B9B74;" d="M443.867,96.822c-0.615,5.727-5.769,9.868-11.495,9.242l-92.881-10.035l-242.32,242.32l9.273,85.819
		c0.626,5.727-3.515,10.869-9.242,11.485c-0.386,0.042-0.761,0.063-1.137,0.063c-5.257,0-9.785-3.964-10.358-9.305l-9.816-90.784
		c-0.344-3.14,0.761-6.269,2.994-8.502L328.267,77.743c2.243-2.232,5.362-3.338,8.502-2.994l97.846,10.577
		C440.341,85.942,444.482,91.095,443.867,96.822z"/>
</g>
<path style="fill:#5FB795;" d="M443.867,96.822c-0.615,5.727-5.769,9.868-11.495,9.242l-92.881-10.035l-64.706,64.706v-29.51
	l53.481-53.481c2.243-2.232,5.362-3.338,8.502-2.994l97.846,10.577C440.341,85.942,444.482,91.095,443.867,96.822z"/>
<g>
	<path style="fill:#FFC34E;" d="M104.578,206.159l-10.007-2.946c4.369-14.84,17.138-36.806,39.872-53.953
		c27.974-21.099,64.902-30.16,106.783-26.215l-0.978,10.385c-39.811-3.754-73.294,4.374-99.523,24.157
		C120.02,173.204,108.476,192.917,104.578,206.159z"/>
	<path style="fill:#FFC34E;" d="M119.871,177.867l-9.39-4.543c1.042-2.153,2.196-4.42,3.417-6.819
		c8.951-17.579,21.21-41.653,11.097-65.25l9.587-4.109c12.038,28.087-2.06,55.773-11.389,74.093
		C121.997,173.589,120.866,175.81,119.871,177.867z"/>
	<path style="fill:#FFC34E;" d="M146.816,199.631l-9.823-3.511c0.195-0.548,4.921-13.565,17.209-25.812
		c11.38-11.343,31.62-24.157,63.457-20.819l-1.09,10.374C163.841,154.333,147.487,197.779,146.816,199.631z"/>
</g>
<g>
	<polygon style="fill:#9B642D;" points="245.64,233.368 234.927,248.41 189.227,215.895 3.623,83.835 11.05,73.393 19.197,61.96 	
		"/>
	<polygon style="fill:#9B642D;" points="245.64,233.368 234.927,248.41 189.227,215.895 3.623,83.835 11.05,73.393 19.197,61.96 	
		"/>
</g>
<g>
	<polygon style="fill:#844719;" points="215.671,225.419 189.227,215.895 3.623,83.835 11.05,73.393 	"/>
	<polygon style="fill:#844719;" points="215.671,225.419 189.227,215.895 3.623,83.835 11.05,73.393 	"/>
</g>
<path style="fill:#88CCAE;" d="M374.759,234.567l-139.05,139.05c-6.937,6.926-17.692,8.262-26.099,3.213L96.253,308.859
	L310.001,95.111l67.971,113.347C383.021,216.876,381.696,227.63,374.759,234.567z"/>
<g>
	<path style="fill:#FFC34E;" d="M263.654,118.016l-7.376-7.376c4.327-4.326,3.988-13.334,3.629-22.872
		c-0.61-16.238-1.446-38.478,23.323-48.678l3.972,9.646c-18.044,7.43-17.475,22.59-16.871,38.64
		C270.758,98.729,271.199,110.47,263.654,118.016z"/>
	<path style="fill:#FFC34E;" d="M19.323,284.88c-5.379-26.301,3.619-44.231,12.115-54.641
		c12.347-15.128,32.259-24.526,51.966-24.526v10.431c-16.653,0-33.468,7.928-43.884,20.691c-7.068,8.66-14.537,23.662-9.977,45.955
		L19.323,284.88z"/>
</g>
<path style="fill:#5FB795;" d="M249.521,288.57l-9.972,3.046c-0.052-0.177-5.716-18.255-19.194-34.778
	c-12.747-15.626-27.893-24.628-45.178-26.902l8.898-8.898c16.92,4.058,32.014,13.978,44.573,29.479
	C243.314,268.615,249.27,287.767,249.521,288.57z"/>
<g>
	<path style="fill:#FFC34E;" d="M249.977,291.617c-0.054-0.175-5.715-18.252-19.196-34.775
		c-17.571-21.539-39.667-30.497-65.69-26.627l-1.534-10.319c29.603-4.401,55.72,6.185,75.524,30.619
		c14.67,18.098,20.626,37.248,20.872,38.055L249.977,291.617z"/>
	<path style="fill:#FFC34E;" d="M51.629,356.691c-2.416-14.095,0.861-43.712,30.555-54.924l3.684,9.759
		c-28.984,10.944-24.175,42.097-23.956,43.417L51.629,356.691z"/>
</g>
<g>
</g>
<g>
</g>
<g>
</g>
<g>
</g>
<g>
</g>
<g>
</g>
<g>
</g>
<g>
</g>
<g>
</g>
<g>
</g>
<g>
</g>
<g>
</g>
<g>
</g>
<g>
</g>
<g>
</g>
</svg>
