<?xml version="1.0" encoding="iso-8859-1"?>
<!-- Generator: Adobe Illustrator 19.0.0, SVG Export Plug-In . SVG Version: 6.00 Build 0)  -->
<svg version="1.1" id="Layer_1" xmlns="http://www.w3.org/2000/svg" xmlns:xlink="http://www.w3.org/1999/xlink" x="0px" y="0px"
	 viewBox="0 0 511.999 511.999" style="enable-background:new 0 0 511.999 511.999;" xml:space="preserve">
<path style="fill:#A2D8F4;" d="M381.347,161.376c-3.541-6.743-6.601-12.567-8.116-15.938c-4.768-10.598-27.465-46.614-47.618-75.564
	C281.917,7.11,268.519,1.058,257.624,0.105c-14.367-1.255-31.547,8.221-68.694,58.553c-21.794,29.53-42.536,62.858-50.987,79.225
	l-3.617,6.996c-29.283,56.593-59.562,115.113-59.562,185.888c0,99.933,81.301,181.233,181.234,181.233
	c48.654,0,94.352-18.985,128.675-53.459c34.103-34.253,52.769-79.659,52.559-127.856
	C436.957,267.24,400.781,198.374,381.347,161.376z"/>
<path style="fill:#7CC8F0;" d="M381.328,161.372c-3.541-6.743-6.601-12.567-8.116-15.938c-4.768-10.598-27.465-46.614-47.618-75.564
	C281.9,7.106,268.502,1.054,257.607,0.101l-1.626,511.896c48.654,0,94.352-18.985,128.675-53.459
	c34.103-34.253,52.769-79.659,52.559-127.856C436.938,267.237,400.762,198.371,381.328,161.372z"/>
<path style="fill:#D0EEFC;" d="M233.071,434.712c-54.751,0-99.294-44.543-99.294-99.294c0-10.304,8.354-18.658,18.658-18.658
	c10.304,0,18.658,8.354,18.658,18.658c0,34.176,27.803,61.977,61.977,61.977c10.304,0,18.658,8.354,18.658,18.658
	C251.73,426.358,243.377,434.712,233.071,434.712z"/>
<circle style="fill:#B5DFF7;" cx="281.664" cy="411.873" r="18.658"/>
<g>
</g>
<g>
</g>
<g>
</g>
<g>
</g>
<g>
</g>
<g>
</g>
<g>
</g>
<g>
</g>
<g>
</g>
<g>
</g>
<g>
</g>
<g>
</g>
<g>
</g>
<g>
</g>
<g>
</g>
</svg>
