<?xml version="1.0" encoding="utf-8"?>
<svg id="Capa_1" enable-background="new 0 0 501 501" height="512" viewBox="0 0 501 501" width="512" xmlns="http://www.w3.org/2000/svg">
  <path d="m332.34 470h-101.34c-22.091 0-40-17.909-40-40v-230c0-22.091 17.909-40 40-40h101.34c22.091 0 40 17.909 40 40v230c0 22.091-17.908 40-40 40z" fill="#f19b0b"/>
  <path d="m484.608 167.707c10.587 27.393 16.392 57.165 16.392 88.293 0 91.968-50.674 172.101-125.624 214h-106.376c-22.091 0-40-17.909-40-40v-230c0-22.091 17.909-40 40-40h192c8.83 0 16.991 2.861 23.608 7.707z" fill="#fdb44c"/>
  <path d="m459.512 392.455c-8.572 12.759-18.312 24.668-29.067 35.573-2.504 2.539-5.919 3.972-9.485 3.972h-181.96c-5.523 0-10-4.477-10-10v-214c0-5.523 4.477-10 10-10h214c5.523 0 10 4.477 10 10v172.97c0 4.088-1.207 8.091-3.488 11.485z" fill="#6d4336"/>
  <path d="m403 402c-79.529 0-144-64.471-144-144 0-33.137 26.863-60 60-60h134c5.523 0 10 4.477 10 10v134c0 33.137-26.863 60-60 60z" fill="#a64b30"/>
  <path d="m456.936 261.542c-5.858 5.858-15.355 5.858-21.213 0l-58.036-58.036c-5.858-5.858-5.858-15.355 0-21.213 5.858-5.858 15.355-5.858 21.213 0l58.036 58.036c5.858 5.858 5.858 15.356 0 21.213zm-234.116 73.458c-5.858-5.858-15.355-5.858-21.213 0-5.858 5.858-5.858 15.355 0 21.213l67.528 67.528c5.858 5.857 15.355 5.857 21.213 0 5.858-5.858 5.858-15.355 0-21.213zm62-158.803c-5.858-5.858-15.355-5.858-21.213 0s-5.858 15.355 0 21.213l141.216 141.216c5.858 5.858 15.355 5.858 21.213 0 5.858-5.858 5.858-15.355 0-21.213zm-61.812 43.008c-5.858-5.858-15.355-5.858-21.213 0s-5.858 15.355 0 21.213l170.787 170.787c5.858 5.857 15.355 5.857 21.213 0 5.858-5.858 5.858-15.355 0-21.213z" fill="#f19b0b"/>
  <path d="m174.35 393.553-162.634-162.634c-15.621-15.621-15.621-40.948 0-56.569l162.634-162.634c15.621-15.621 40.948-15.621 56.569 0l162.634 162.634c15.621 15.621 15.621 40.948 0 56.569l-162.634 162.634c-15.621 15.621-40.948 15.621-56.569 0z" fill="#f19b0b"/>
  <path d="m174.35 393.553-135.764-135.764c-15.621-15.621-15.621-40.948 0-56.569l162.634-162.634c15.621-15.621 40.948-15.621 56.569 0l135.764 135.764c15.621 15.621 15.621 40.948 0 56.569l-162.634 162.634c-15.621 15.621-40.948 15.621-56.569 0z" fill="#fdb44c"/>
  <path d="m195.563 361.026-151.32-151.32c-3.905-3.905-3.905-10.237 0-14.142l151.32-151.321c3.905-3.905 10.237-3.905 14.142 0l151.321 151.321c3.905 3.905 3.905 10.237 0 14.142l-151.32 151.32c-3.906 3.906-10.237 3.906-14.143 0z" fill="#6d4336"/>
  <path d="m181.421 304.458c-56.236-56.236-56.236-147.411 0-203.647 23.431-23.431 61.421-23.431 84.853 0l94.752 94.752c3.905 3.905 3.905 10.237 0 14.142l-94.752 94.752c-23.431 23.432-61.421 23.432-84.853.001z" fill="#a64b30"/>
  <path d="m248.61 162.747c0 8.285-6.716 15-15 15h-50.206v179.593c0 8.284-6.716 15-15 15s-15-6.716-15-15v-179.593h-52.013v97.847c0 8.285-6.716 15-15 15s-15-6.715-15-15v-97.847h-10.166c-8.284 0-15-6.715-15-15 0-8.284 6.716-15 15-15h10.166v-18.071c0-8.285 6.716-15 15-15s15 6.715 15 15v18.071h52.013v-46.356h-23.729c-8.284 0-15-6.715-15-15 0-8.284 6.716-15 15-15h23.729v-23.462c0-8.284 6.716-15 15-15s15 6.716 15 15v23.462h15.93c8.284 0 15 6.716 15 15 0 8.285-6.716 15-15 15h-15.93v46.356h50.206c8.284 0 15 6.715 15 15z" fill="#f19b0b"/>
  <path d="m490.394 273.787-16.779-16.778 16.59-16.59c5.858-5.858 5.858-15.355 0-21.213s-15.355-5.858-21.213 0l-16.59 16.59-3.492-3.492c-5.858-5.858-15.355-5.858-21.213 0s-5.858 15.355 0 21.213l3.492 3.492-32.779 32.778-3.492-3.492c-5.858-5.858-15.355-5.858-21.213 0s-5.858 15.355 0 21.213l3.492 3.492-31.197 31.197-4.992-4.992c-5.858-5.858-15.355-5.858-21.213 0s-5.858 15.355 0 21.213l4.992 4.992-36.779 36.778-4.992-4.992c-5.858-5.858-15.355-5.858-21.213 0s-5.858 15.355 0 21.213l4.992 4.992-16.59 16.59c-5.858 5.858-5.858 15.355 0 21.213s15.355 5.858 21.213 0l16.59-16.59 16.779 16.779c5.858 5.857 15.355 5.857 21.213 0 5.858-5.858 5.858-15.355 0-21.213l-16.779-16.778 36.779-36.779 36.779 36.778-16.779 16.779c-5.858 5.858-5.858 15.355 0 21.213s15.355 5.858 21.213 0l16.779-16.779 4.865 4.865c7.832-6.261 15.272-12.992 22.276-20.151l-5.927-5.927 31.197-31.196 2.764 2.765c12.33-18.253 22.265-38.257 29.354-59.562-5.861-4.207-14.072-3.676-19.34 1.592l-12.779 12.778-36.779-36.778 32.779-32.779 16.778 16.779c5.858 5.858 15.355 5.858 21.213 0 5.858-5.858 5.858-15.355.001-21.213zm-55.206 95.205-31.197 31.197-36.779-36.778 31.197-31.197zm-177.666-24.948v-10.166h18.072c8.284 0 15-6.716 15-15 0-8.285-6.716-15-15-15h-18.072v-52.013h46.356v23.728c0 8.285 6.716 15 15 15s15-6.715 15-15v-23.728h23.462c8.284 0 15-6.716 15-15 0-8.284-6.716-15-15-15h-23.462v-44.119h10.166c8.284 0 15-6.715 15-15 0-8.284-6.716-15-15-15h-10.166v-18.071c0-8.285-6.716-15-15-15s-15 6.715-15 15v18.071h-46.356v-46.356h18.072c8.284 0 15-6.715 15-15 0-8.284-6.716-15-15-15h-18.072v-10.165c0-8.284-6.716-15-15-15s-15 6.716-15 15v10.166h-45.243c-8.284 0-15 6.716-15 15 0 8.285 6.716 15 15 15h45.243v46.356h-44.119v-10.722c0-8.284-6.716-15-15-15s-15 6.716-15 15v10.722h-48.906c-8.284 0-15 6.716-15 15 0 8.285 6.716 15 15 15h123.025v44.119h-44.119v-7.06c0-8.284-6.716-15-15-15s-15 6.716-15 15v7.06h-52.013v-7.06c0-8.284-6.716-15-15-15s-15 6.716-15 15v7.06h-23.461c-8.284 0-15 6.715-15 15 0 8.284 6.716 15 15 15h23.462v23.728c0 8.285 6.716 15 15 15s15-6.715 15-15v-23.728h52.013v52.013h-23.729c-8.284 0-15 6.715-15 15 0 8.284 6.716 15 15 15h23.729v23.462c0 8.284 6.716 15 15 15s15-6.716 15-15v-23.462h44.119v10.166c0 8.284 6.716 15 15 15 8.284-.001 14.999-6.716 14.999-15.001zm0-166.297h46.356v44.119h-46.356zm-30 126.131h-44.119v-52.013h44.119z" fill="#fdb44c"/>
</svg>