<?xml version="1.0" standalone="no"?>
<!DOCTYPE svg PUBLIC "-//W3C//DTD SVG 20010904//EN"
 "http://www.w3.org/TR/2001/REC-SVG-20010904/DTD/svg10.dtd">
<svg version="1.0" xmlns="http://www.w3.org/2000/svg"
 width="512.000000pt" height="512.000000pt" viewBox="0 0 512.000000 512.000000"
 preserveAspectRatio="xMidYMid meet">
<metadata>
Created by potrace 1.11, written by Peter Selinger 2001-2013
</metadata>
<g transform="translate(0.000000,512.000000) scale(0.100000,-0.100000)"
fill="#000000" stroke="none">
<path d="M2396 4983 c-15 -4 147 -171 730 -754 l749 -749 432 0 c454 0 500 -4
586 -46 26 -13 47 -21 47 -18 0 17 -141 295 -192 378 -408 667 -1097 1104
-1870 1186 -96 10 -445 12 -482 3z"/>
<path d="M1420 4687 c-204 -112 -388 -251 -559 -420 -185 -182 -335 -382 -446
-592 l-48 -90 577 575 c317 316 576 576 576 577 0 5 -6 2 -100 -50z"/>
<path d="M2046 4679 c-17 -5 -60 -39 -98 -76 l-68 -67 0 -78 0 -78 220 0 220
0 0 48 c0 47 -1 49 -97 144 -105 104 -131 120 -177 107z"/>
<path d="M1227 3882 l-187 -187 0 -48 0 -47 259 0 258 0 7 92 c3 50 6 156 6
235 l0 143 -78 0 -77 0 -188 -188z"/>
<path d="M1880 3835 l0 -235 220 0 220 0 0 235 0 235 -220 0 -220 0 0 -235z"/>
<path d="M2640 3835 l0 -235 230 0 230 0 0 53 0 52 -183 183 -182 182 -48 0
-47 0 0 -235z"/>
<path d="M538 3193 c-53 -54 -102 -111 -107 -126 -16 -41 5 -81 86 -160 l70
-68 69 3 69 3 3 223 2 222 -47 0 c-48 0 -50 -1 -145 -97z"/>
<path d="M1040 3065 l0 -225 163 0 c89 0 206 3 260 7 l97 6 0 219 0 218 -260
0 -260 0 0 -225z"/>
<path d="M1880 3070 l0 -220 220 0 220 0 0 220 0 220 -220 0 -220 0 0 -220z"/>
<path d="M2640 3070 l0 -220 230 0 230 0 0 220 0 220 -230 0 -230 0 0 -220z"/>
<path d="M3420 3070 l0 -220 79 0 79 0 66 70 c106 112 103 135 -32 272 -95 97
-96 98 -144 98 l-48 0 0 -220z"/>
<path d="M4427 2898 l193 -193 55 55 55 54 0 103 c0 99 -1 104 -29 135 l-29
33 -219 3 -218 3 192 -193z"/>
<path d="M3913 2640 l-163 -165 160 -160 160 -160 165 165 165 165 -162 160
-163 160 -162 -165z"/>
<path d="M124 2717 c-3 -10 -4 -127 -1 -260 5 -274 28 -435 91 -653 182 -632
619 -1182 1184 -1492 289 -159 589 -258 902 -297 189 -24 564 -17 739 14 244
44 442 108 661 215 l105 51 -760 5 c-683 5 -765 7 -810 22 -110 37 -196 117
-249 227 -31 65 -31 68 -34 248 l-4 182 -56 27 c-49 23 -177 147 -909 877
-666 665 -854 847 -859 834z"/>
<path d="M1040 2457 l0 -72 188 -188 187 -187 73 0 72 0 0 260 0 260 -260 0
-260 0 0 -73z"/>
<path d="M1880 2270 l0 -260 220 0 220 0 0 260 0 260 -220 0 -220 0 0 -260z"/>
<path d="M2640 2270 l0 -260 48 0 47 0 183 183 182 182 0 78 0 77 -230 0 -230
0 0 -260z"/>
<path d="M4452 2097 l-162 -162 188 -188 188 -187 32 33 32 33 0 265 0 265
-53 52 c-29 29 -55 52 -57 52 -3 0 -78 -73 -168 -163z"/>
<path d="M3370 2095 l-155 -155 160 -160 160 -160 157 157 158 158 -157 157
c-87 87 -160 158 -163 158 -3 0 -75 -70 -160 -155z"/>
<path d="M2807 1532 l-187 -187 158 -158 c86 -86 162 -157 167 -157 6 0 91 81
189 179 l179 179 -51 59 c-28 32 -99 106 -159 165 l-108 108 -188 -188z"/>
<path d="M3917 1552 l-157 -157 185 -185 185 -185 157 158 158 157 -185 185
-185 185 -158 -158z"/>
<path d="M1880 1622 l0 -78 73 -71 c112 -111 133 -109 274 29 l93 92 0 53 0
53 -220 0 -220 0 0 -78z"/>
<path d="M3351 995 c-100 -98 -181 -183 -181 -190 0 -6 22 -32 48 -58 l48 -47
270 0 270 0 52 53 52 52 -143 140 c-78 77 -163 160 -189 184 l-47 44 -180
-178z"/>
<path d="M2367 1092 c-27 -28 -27 -30 -27 -165 0 -147 11 -196 48 -216 12 -6
70 -11 129 -11 l109 0 49 50 50 50 -160 160 c-88 88 -162 160 -166 160 -3 0
-17 -13 -32 -28z"/>
<path d="M4504 959 l-159 -159 30 -25 30 -25 68 71 c55 59 185 222 210 265 4
7 1 17 -6 22 -10 9 -50 -26 -173 -149z"/>
</g>
</svg>
