<svg viewBox="0 0 512 512" xmlns="http://www.w3.org/2000/svg"><path d="m512 256c0 141.386719-114.613281 256-256 256s-256-114.613281-256-256 114.613281-256 256-256 256 114.613281 256 256zm0 0" fill="#f5b96e"/><path d="m30.90625 256c0-136.195312 106.359375-247.53125 240.546875-255.523438-5.113281-.304687-10.261719-.476562-15.453125-.476562-141.386719 0-256 114.613281-256 256s114.613281 256 256 256c5.191406 0 10.339844-.171875 15.453125-.476562-134.1875-7.992188-240.546875-119.328126-240.546875-255.523438zm0 0" fill="#e8af68"/><g fill="#dca663"><path d="m128.300781 86.9375v41.363281h-41.363281c11.804688-15.613281 25.75-29.558593 41.363281-41.363281zm0 0"/><path d="m241.488281 44.632812v83.667969h-84.164062v-59.8125c25.433593-13.429687 53.933593-21.824219 84.164062-23.855469zm0 0"/><path d="m354.675781 68.46875v59.832031h-84.164062v-83.679687c30.242187 2.042968 58.730469 10.4375 84.164062 23.847656zm0 0"/><path d="m425.0625 128.300781h-41.363281v-41.363281c15.613281 11.804688 29.558593 25.75 41.363281 41.363281zm0 0"/><path d="m128.300781 157.324219v84.164062h-83.679687c2.042968-30.242187 10.4375-58.730469 23.847656-84.164062zm0 0"/><path d="m157.324219 157.324219h84.164062v84.164062h-84.164062zm0 0"/><path d="m270.511719 157.324219h84.164062v84.164062h-84.164062zm0 0"/><path d="m467.378906 241.488281h-83.679687v-84.164062h59.832031c13.410156 25.433593 21.804688 53.921875 23.847656 84.164062zm0 0"/><path d="m128.300781 270.511719v84.164062h-59.832031c-13.410156-25.433593-21.804688-53.921875-23.847656-84.164062zm0 0"/><path d="m157.324219 270.511719h84.164062v84.164062h-84.164062zm0 0"/><path d="m270.511719 270.511719h84.164062v84.164062h-84.164062zm0 0"/><path d="m467.378906 270.511719c-2.042968 30.242187-10.4375 58.730469-23.847656 84.164062h-59.832031v-84.164062zm0 0"/><path d="m128.300781 383.699219v41.363281c-15.613281-11.804688-29.558593-25.75-41.363281-41.363281zm0 0"/><path d="m241.488281 383.699219v83.679687c-30.242187-2.042968-58.730469-10.4375-84.164062-23.847656v-59.832031zm0 0"/><path d="m354.675781 383.699219v59.832031c-25.433593 13.410156-53.921875 21.804688-84.164062 23.847656v-83.679687zm0 0"/><path d="m425.0625 383.699219c-11.804688 15.613281-25.75 29.558593-41.363281 41.363281v-41.363281zm0 0"/></g></svg>